<?xml version="1.0" encoding="utf-8"?>
<!-- Generator: Adobe Illustrator 27.5.0, SVG Export Plug-In . SVG Version: 6.00 Build 0)  -->
<svg version="1.1" xmlns="http://www.w3.org/2000/svg" xmlns:xlink="http://www.w3.org/1999/xlink" x="0px" y="0px"
	 viewBox="0 0 1200 800" style="enable-background:new 0 0 1200 800;" xml:space="preserve">
<g id="Background">
	<linearGradient id="SVGID_1_" gradientUnits="userSpaceOnUse" x1="0" y1="399.5364" x2="1256.076" y2="399.5364">
		<stop  offset="0" style="stop-color:#E9E9E9"/>
		<stop  offset="0.2169" style="stop-color:#F1F1F1"/>
		<stop  offset="0.5168" style="stop-color:#F6F6F6"/>
		<stop  offset="0.7397" style="stop-color:#F1F1F1"/>
		<stop  offset="0.9985" style="stop-color:#E3E3E3"/>
		<stop  offset="1" style="stop-color:#E3E3E3"/>
	</linearGradient>
	<rect style="fill:url(#SVGID_1_);" width="1200" height="799.073"/>
</g>
<g id="Shadow">
	<g>
		<defs>
			<rect id="SVGID_00000119092727803060675000000013728946435951990191_" width="1200" height="799.073"/>
		</defs>
		<clipPath id="SVGID_00000139258031494803486870000002592493700826225808_">
			<use xlink:href="#SVGID_00000119092727803060675000000013728946435951990191_"  style="overflow:visible;"/>
		</clipPath>
		
			<circle style="clip-path:url(#SVGID_00000139258031494803486870000002592493700826225808_);fill:#FFFFFF;" cx="95.363" cy="349.402" r="20.939"/>
		<g style="opacity:0.55;clip-path:url(#SVGID_00000139258031494803486870000002592493700826225808_);">
			<g>
				<path style="fill:#FFFFFF;" d="M115.949,767.999h282.014L256.956,523.768L115.949,767.999z M412.887,777.037H101.024
					l155.931-270.08L412.887,777.037z"/>
			</g>
			<path style="fill:#FEFEFE;" d="M116.606,767.641H398.62L257.613,523.409L116.606,767.641z M413.544,776.678H101.682
				l155.931-270.08L413.544,776.678z"/>
			<path style="fill:#FDFDFD;" d="M117.263,767.282h282.014L258.27,523.051L117.263,767.282z M414.202,776.32H102.339L258.27,506.24
				L414.202,776.32z"/>
			<path style="fill:#FCFCFC;" d="M117.921,766.924h282.014L258.928,522.692L117.921,766.924z M414.859,775.961H102.996
				l155.931-270.08L414.859,775.961z"/>
			<path style="fill:#FBFBFB;" d="M118.578,766.565h282.014L259.585,522.334L118.578,766.565z M415.516,775.603H103.654
				l155.931-270.08L415.516,775.603z"/>
			<path style="fill:#FAFAFA;" d="M119.235,766.207h282.014L260.242,521.975L119.235,766.207z M416.174,775.245H104.311
				l155.931-270.08L416.174,775.245z"/>
			<path style="fill:#F9F9F9;" d="M119.893,765.848h282.014L260.9,521.617L119.893,765.848z M416.831,774.886H104.968L260.9,504.806
				L416.831,774.886z"/>
			<path style="fill:#F8F8F8;" d="M120.55,765.49h282.014L261.557,521.258L120.55,765.49z M417.488,774.528H105.626l155.931-270.08
				L417.488,774.528z"/>
			<path style="fill:#F7F7F7;" d="M121.207,765.131h282.014L262.214,520.9L121.207,765.131z M418.146,774.169H106.283
				l155.931-270.08L418.146,774.169z"/>
			<path style="fill:#F6F6F6;" d="M121.865,764.773h282.014L262.871,520.541L121.865,764.773z M418.803,773.811H106.94
				l155.931-270.08L418.803,773.811z"/>
			<path style="fill:#F5F5F5;" d="M122.522,764.414h282.014L263.529,520.183L122.522,764.414z M419.46,773.452H107.598
				l155.931-270.08L419.46,773.452z"/>
			<path style="fill:#F4F4F4;" d="M123.179,764.056h282.014L264.186,519.824L123.179,764.056z M420.118,773.094H108.255
				l155.931-270.08L420.118,773.094z"/>
			<path style="fill:#F3F3F3;" d="M123.837,763.697H405.85L264.844,519.466L123.837,763.697z M420.775,772.735H108.912
				l155.931-270.08L420.775,772.735z"/>
			<path style="fill:#F2F2F2;" d="M124.494,763.339h282.014L265.501,519.107L124.494,763.339z M421.432,772.377H109.57
				l155.931-270.08L421.432,772.377z"/>
			<path style="fill:#F1F1F1;" d="M125.151,762.98h282.014L266.158,518.749L125.151,762.98z M422.09,772.018H110.227l155.931-270.08
				L422.09,772.018z"/>
			<path style="fill:#F0F0F0;" d="M125.809,762.622h282.014L266.815,518.391L125.809,762.622z M422.747,771.66H110.884
				l155.931-270.08L422.747,771.66z"/>
			<path style="fill:#EFEFEF;" d="M126.466,762.263H408.48L267.473,518.032L126.466,762.263z M423.404,771.301H111.541
				l155.931-270.08L423.404,771.301z"/>
			<path style="fill:#EEEEEE;" d="M127.123,761.905h282.014L268.13,517.674L127.123,761.905z M424.061,770.943H112.199
				l155.931-270.08L424.061,770.943z"/>
			<path style="fill:#EDEDED;" d="M127.781,761.546h282.014L268.788,517.315L127.781,761.546z M424.719,770.584H112.856
				l155.931-270.08L424.719,770.584z"/>
			<path style="fill:#ECECEC;" d="M128.438,761.188h282.014L269.445,516.957L128.438,761.188z M425.376,770.226H113.513
				l155.931-270.08L425.376,770.226z"/>
			<path style="fill:#ECECEC;" d="M129.095,760.83h282.014L270.102,516.598L129.095,760.83z M426.034,769.867H114.171
				l155.931-270.08L426.034,769.867z"/>
			<path style="fill:#EBEBEB;" d="M129.753,760.471h282.014L270.759,516.24L129.753,760.471z M426.691,769.509H114.828
				l155.931-270.08L426.691,769.509z"/>
			<path style="fill:#EAEAEA;" d="M130.41,760.112h282.014L271.417,515.881L130.41,760.112z M427.348,769.151H115.485
				l155.931-270.08L427.348,769.151z"/>
			<path style="fill:#E9E9E9;" d="M131.067,759.754h282.014L272.074,515.523L131.067,759.754z M428.005,768.792H116.143
				l155.931-270.08L428.005,768.792z"/>
			<path style="fill:#E8E8E8;" d="M131.725,759.396h282.014L272.732,515.164L131.725,759.396z M428.663,768.433H116.8
				l155.931-270.08L428.663,768.433z"/>
			<path style="fill:#E7E7E7;" d="M132.382,759.037h282.014L273.389,514.806L132.382,759.037z M429.32,768.075H117.457
				l155.931-270.08L429.32,768.075z"/>
			<path style="fill:#E6E6E6;" d="M133.039,758.679h282.014L274.046,514.447L133.039,758.679z M429.978,767.717H118.115
				l155.931-270.08L429.978,767.717z"/>
			<path style="fill:#E5E5E5;" d="M133.697,758.32H415.71L274.703,514.089L133.697,758.32z M430.635,767.358H118.772l155.931-270.08
				L430.635,767.358z"/>
			<path style="fill:#E4E4E4;" d="M134.354,757.962h282.014L275.361,513.73L134.354,757.962z M431.292,767H119.429l155.931-270.08
				L431.292,767z"/>
			<path style="fill:#E3E3E3;" d="M135.011,757.603h282.014L276.018,513.372L135.011,757.603z M431.949,766.641H120.087
				l155.931-270.08L431.949,766.641z"/>
			<path style="fill:#E2E2E2;" d="M135.669,757.245h282.014L276.675,513.013L135.669,757.245z M432.607,766.283H120.744
				l155.931-270.08L432.607,766.283z"/>
			<path style="fill:#E1E1E1;" d="M136.326,756.886H418.34L277.333,512.655L136.326,756.886z M433.264,765.924H121.401
				l155.931-270.08L433.264,765.924z"/>
			<path style="fill:#E0E0E0;" d="M136.983,756.528h282.014L277.99,512.296L136.983,756.528z M433.922,765.566H122.059
				l155.931-270.08L433.922,765.566z"/>
			<path style="fill:#DFDFDF;" d="M137.641,756.169h282.014L278.647,511.938L137.641,756.169z M434.579,765.207H122.716
				l155.931-270.08L434.579,765.207z"/>
			<path style="fill:#DEDEDE;" d="M138.298,755.811h282.014L279.305,511.579L138.298,755.811z M435.236,764.849H123.373
				l155.931-270.08L435.236,764.849z"/>
			<path style="fill:#DDDDDD;" d="M138.955,755.452h282.014L279.962,511.221L138.955,755.452z M435.893,764.49H124.031
				l155.931-270.08L435.893,764.49z"/>
			<path style="fill:#DCDCDC;" d="M139.613,755.094h282.014L280.619,510.862L139.613,755.094z M436.551,764.132H124.688
				l155.931-270.08L436.551,764.132z"/>
			<path style="fill:#DBDBDB;" d="M140.27,754.735h282.014L281.277,510.504L140.27,754.735z M437.208,763.773H125.345
				l155.931-270.08L437.208,763.773z"/>
			<path style="fill:#DADADA;" d="M140.927,754.377h282.014L281.934,510.146L140.927,754.377z M437.866,763.415H126.003
				l155.931-270.08L437.866,763.415z"/>
			<g>
				<path style="fill:#D9D9D9;" d="M141.585,754.018h282.014L282.591,509.787L141.585,754.018z M438.523,763.056H126.66
					l155.931-270.08L438.523,763.056z"/>
			</g>
		</g>
		<g style="clip-path:url(#SVGID_00000139258031494803486870000002592493700826225808_);">
			<path style="fill:#FFFFFF;" d="M9.786,573.006L0,785.648c0,0,57.264-48.651,57.264-116.784
				C57.264,617.292,30.86,589.982,9.786,573.006z"/>
			<path style="fill:#FEFEFE;" d="M0,784.056c0,0,56.775-47.605,56.775-115.738c0-51.572-26.404-78.882-47.478-95.858L0,784.056z"/>
			<path style="fill:#FDFDFD;" d="M0,782.463c0,0,56.285-46.559,56.285-114.692c0-51.572-26.404-78.882-47.478-95.858L0,782.463z"/>
			<path style="fill:#FCFCFC;" d="M0,780.87c0,0,55.796-45.513,55.796-113.645c0-51.572-26.404-78.882-47.478-95.858L0,780.87z"/>
			<path style="fill:#FBFBFB;" d="M0,779.277c0,0,55.307-44.466,55.307-112.599c0-51.572-26.404-78.882-47.478-95.858L0,779.277z"/>
			<path style="fill:#FAFAFA;" d="M0,777.684c0,0,54.817-43.42,54.817-111.553c0-51.572-26.404-78.882-47.478-95.858L0,777.684z"/>
			<path style="fill:#F9F9F9;" d="M0.001,776.092c0,0,54.328-42.374,54.328-110.506c0-51.572-26.404-78.882-47.478-95.858
				L0.001,776.092z"/>
			<path style="fill:#F8F8F8;" d="M0.001,774.499c0,0,53.838-41.327,53.838-109.46c0-51.572-26.404-78.882-47.478-95.858
				L0.001,774.499z"/>
			<path style="fill:#F7F7F7;" d="M0.001,772.906c0,0,53.349-40.281,53.349-108.414c0-51.572-26.404-78.882-47.478-95.858
				L0.001,772.906z"/>
			<path style="fill:#F6F6F6;" d="M0.001,771.313c0,0,52.86-39.235,52.86-107.367c0-51.572-26.404-78.882-47.478-95.858
				L0.001,771.313z"/>
			<path style="fill:#F6F6F6;" d="M0.001,769.72c0,0,52.37-38.188,52.37-106.321c0-51.572-26.404-78.882-47.478-95.858L0.001,769.72
				z"/>
			<path style="fill:#F5F5F5;" d="M0.001,768.128c0,0,51.881-37.142,51.881-105.275c0-51.572-26.404-78.882-47.478-95.858
				L0.001,768.128z"/>
			<path style="fill:#F4F4F4;" d="M0.001,766.535c0,0,51.392-36.096,51.392-104.229c0-51.572-26.404-78.882-47.478-95.858
				L0.001,766.535z"/>
			<path style="fill:#F3F3F3;" d="M0.001,764.942c0,0,50.902-35.05,50.902-103.182c0-51.572-26.404-78.882-47.478-95.858
				L0.001,764.942z"/>
			<path style="fill:#F2F2F2;" d="M0.001,763.349c0,0,50.413-34.003,50.413-102.136c0-51.572-26.404-78.882-47.478-95.858
				L0.001,763.349z"/>
			<path style="fill:#F1F1F1;" d="M0.001,761.756c0,0,49.923-32.957,49.923-101.09c0-51.572-26.404-78.882-47.478-95.858
				L0.001,761.756z"/>
			<path style="fill:#F0F0F0;" d="M0.001,760.164c0,0,49.434-31.911,49.434-100.043c0-51.572-26.404-78.882-47.478-95.858
				L0.001,760.164z"/>
			<path style="fill:#EFEFEF;" d="M0.001,758.571c0,0,48.944-30.864,48.944-98.997c0-51.572-26.404-78.882-47.478-95.858
				L0.001,758.571z"/>
			<path style="fill:#EEEEEE;" d="M0.002,756.978c0,0,48.455-29.818,48.455-97.951c0-51.572-26.404-78.882-47.478-95.858
				L0.002,756.978z"/>
			<path style="fill:#EDEDED;" d="M0.002,755.385c0,0,47.966-28.772,47.966-96.904c0-51.572-26.404-78.882-47.478-95.858
				L0.002,755.385z"/>
			<path style="fill:#ECECEC;" d="M0,562.076l0.002,191.716c0,0,47.476-27.726,47.476-95.858
				C47.478,606.362,21.074,579.052,0,562.076z"/>
		</g>
		<g style="opacity:0.4;clip-path:url(#SVGID_00000139258031494803486870000002592493700826225808_);">
			<g>
				<g>
					<path style="fill:#FFFFFF;" d="M1217.342-71.361H935.328l141.007,244.231L1217.342-71.361z M920.404-80.399h311.863
						l-155.931,270.08L920.404-80.399z"/>
				</g>
			</g>
			<path style="fill:#FEFEFE;" d="M1217.181-70.299H935.167l141.007,244.231L1217.181-70.299z M920.243-79.337h311.863
				l-155.931,270.08L920.243-79.337z"/>
			<path style="fill:#FDFDFD;" d="M1217.02-69.236H935.006l141.007,244.231L1217.02-69.236z M920.081-78.274h311.863
				l-155.931,270.08L920.081-78.274z"/>
			<path style="fill:#FCFCFC;" d="M1216.858-68.173H934.845l141.007,244.231L1216.858-68.173z M919.92-77.211h311.863
				l-155.931,270.08L919.92-77.211z"/>
			<path style="fill:#FBFBFB;" d="M1216.697-67.11H934.683l141.007,244.231L1216.697-67.11z M919.759-76.148h311.863
				l-155.932,270.08L919.759-76.148z"/>
			<path style="fill:#FAFAFA;" d="M1216.536-66.047H934.522l141.007,244.231L1216.536-66.047z M919.597-75.085h311.863
				l-155.931,270.08L919.597-75.085z"/>
			<path style="fill:#F9F9F9;" d="M1216.374-64.984H934.361l141.007,244.231L1216.374-64.984z M919.436-74.022h311.863
				l-155.931,270.08L919.436-74.022z"/>
			<path style="fill:#F8F8F8;" d="M1216.213-63.921H934.199l141.007,244.231L1216.213-63.921z M919.275-72.959h311.863
				l-155.931,270.08L919.275-72.959z"/>
			<path style="fill:#F7F7F7;" d="M1216.052-62.858H934.038l141.007,244.231L1216.052-62.858z M919.113-71.896h311.863
				l-155.931,270.08L919.113-71.896z"/>
			<path style="fill:#F6F6F6;" d="M1215.89-61.795H933.877l141.007,244.231L1215.89-61.795z M918.952-70.833h311.863
				l-155.931,270.08L918.952-70.833z"/>
			<path style="fill:#F5F5F5;" d="M1215.729-60.732H933.715l141.007,244.231L1215.729-60.732z M918.791-69.77h311.863
				l-155.931,270.08L918.791-69.77z"/>
			<path style="fill:#F4F4F4;" d="M1215.568-59.669H933.554l141.007,244.231L1215.568-59.669z M918.629-68.707h311.863
				l-155.931,270.08L918.629-68.707z"/>
			<path style="fill:#F3F3F3;" d="M1215.406-58.607H933.393L1074.4,185.625L1215.406-58.607z M918.468-67.645h311.863
				L1074.4,202.436L918.468-67.645z"/>
			<path style="fill:#F2F2F2;" d="M1215.245-57.544H933.231l141.007,244.231L1215.245-57.544z M918.307-66.582h311.863
				l-155.931,270.08L918.307-66.582z"/>
			<path style="fill:#F1F1F1;" d="M1215.084-56.481H933.07l141.007,244.231L1215.084-56.481z M918.146-65.519h311.863
				l-155.931,270.08L918.146-65.519z"/>
			<path style="fill:#F0F0F0;" d="M1214.922-55.418H932.909l141.007,244.231L1214.922-55.418z M917.984-64.456h311.863
				l-155.931,270.08L917.984-64.456z"/>
			<path style="fill:#EFEFEF;" d="M1214.761-54.355H932.747l141.007,244.231L1214.761-54.355z M917.823-63.393h311.863
				l-155.931,270.08L917.823-63.393z"/>
			<path style="fill:#EEEEEE;" d="M1214.6-53.292H932.586l141.007,244.231L1214.6-53.292z M917.661-62.33h311.863l-155.931,270.08
				L917.661-62.33z"/>
			<path style="fill:#EDEDED;" d="M1214.438-52.229H932.425l141.007,244.231L1214.438-52.229z M917.5-61.267h311.863
				l-155.931,270.08L917.5-61.267z"/>
			<path style="fill:#ECECEC;" d="M1214.277-51.166H932.264l141.007,244.231L1214.277-51.166z M917.339-60.204h311.863
				l-155.931,270.08L917.339-60.204z"/>
			<path style="fill:#ECECEC;" d="M1214.116-50.103H932.102l141.007,244.231L1214.116-50.103z M917.178-59.141h311.863
				l-155.931,270.08L917.178-59.141z"/>
			<path style="fill:#EBEBEB;" d="M1213.954-49.041H931.941l141.007,244.231L1213.954-49.041z M917.016-58.078h311.863
				l-155.931,270.08L917.016-58.078z"/>
			<path style="fill:#EAEAEA;" d="M1213.793-47.978H931.78l141.007,244.231L1213.793-47.978z M916.855-57.016h311.863
				l-155.931,270.08L916.855-57.016z"/>
			<path style="fill:#E9E9E9;" d="M1213.632-46.915H931.618l141.007,244.231L1213.632-46.915z M916.694-55.953h311.863
				l-155.931,270.08L916.694-55.953z"/>
			<path style="fill:#E8E8E8;" d="M1213.471-45.852H931.457l141.007,244.231L1213.471-45.852z M916.532-54.89h311.863
				l-155.931,270.08L916.532-54.89z"/>
			<path style="fill:#E7E7E7;" d="M1213.309-44.789H931.296l141.007,244.231L1213.309-44.789z M916.371-53.827h311.863
				l-155.931,270.08L916.371-53.827z"/>
			<path style="fill:#E6E6E6;" d="M1213.148-43.726H931.134l141.007,244.231L1213.148-43.726z M916.21-52.764h311.863
				l-155.931,270.08L916.21-52.764z"/>
			<path style="fill:#E5E5E5;" d="M1212.987-42.663H930.973l141.007,244.231L1212.987-42.663z M916.048-51.701h311.863
				l-155.931,270.08L916.048-51.701z"/>
			<path style="fill:#E4E4E4;" d="M1212.825-41.6H930.812l141.007,244.231L1212.825-41.6z M915.887-50.638h311.863l-155.931,270.08
				L915.887-50.638z"/>
			<path style="fill:#E3E3E3;" d="M1212.664-40.537H930.65l141.007,244.231L1212.664-40.537z M915.726-49.575h311.863
				l-155.931,270.08L915.726-49.575z"/>
			<path style="fill:#E2E2E2;" d="M1212.503-39.474H930.489l141.007,244.231L1212.503-39.474z M915.565-48.512h311.863
				l-155.931,270.08L915.565-48.512z"/>
			<path style="fill:#E1E1E1;" d="M1212.341-38.411H930.328l141.007,244.231L1212.341-38.411z M915.403-47.45h311.863
				l-155.931,270.08L915.403-47.45z"/>
			<path style="fill:#E0E0E0;" d="M1212.18-37.349H930.167l141.007,244.231L1212.18-37.349z M915.242-46.387h311.863
				l-155.931,270.08L915.242-46.387z"/>
			<path style="fill:#DFDFDF;" d="M1212.019-36.286H930.005l141.007,244.231L1212.019-36.286z M915.081-45.324h311.863
				l-155.932,270.08L915.081-45.324z"/>
			<path style="fill:#DEDEDE;" d="M1211.858-35.223H929.844l141.007,244.231L1211.858-35.223z M914.919-44.261h311.863
				l-155.931,270.08L914.919-44.261z"/>
			<path style="fill:#DDDDDD;" d="M1211.696-34.16H929.682l141.007,244.231L1211.696-34.16z M914.758-43.198h311.863
				l-155.931,270.08L914.758-43.198z"/>
			<path style="fill:#DCDCDC;" d="M1211.535-33.097H929.521l141.007,244.231L1211.535-33.097z M914.597-42.135h311.863
				l-155.931,270.08L914.597-42.135z"/>
			<path style="fill:#DBDBDB;" d="M1211.374-32.034H929.36l141.007,244.231L1211.374-32.034z M914.435-41.072h311.863
				l-155.931,270.08L914.435-41.072z"/>
			<path style="fill:#DADADA;" d="M1211.212-30.971H929.199l141.007,244.231L1211.212-30.971z M914.274-40.009h311.863
				l-155.931,270.08L914.274-40.009z"/>
			<g>
				<g>
					<path style="fill:#D9D9D9;" d="M1211.051-29.908H929.037l141.007,244.231L1211.051-29.908z M914.113-38.946h311.863
						l-155.931,270.08L914.113-38.946z"/>
				</g>
			</g>
		</g>
		<g style="opacity:0.5;clip-path:url(#SVGID_00000139258031494803486870000002592493700826225808_);">
			<path style="fill:#FFFFFF;" d="M935.328,0L729.956,16.56c0,0,27.726,47.476,95.858,47.476
				C877.386,64.036,918.352,21.074,935.328,0z"/>
			<path style="fill:#FEFEFE;" d="M934.363,0L729.34,16.135c0,0,27.725,47.476,95.858,47.476
				C876.77,63.611,917.386,21.074,934.363,0z"/>
			<path style="fill:#FDFDFD;" d="M933.397,0L728.724,15.711c0,0,27.726,47.476,95.858,47.476
				C876.154,63.187,916.42,21.074,933.397,0z"/>
			<path style="fill:#FCFCFC;" d="M932.431,0L728.109,15.286c0,0,27.725,47.476,95.858,47.476
				C875.539,62.762,915.454,21.074,932.431,0z"/>
			<path style="fill:#FBFBFB;" d="M931.465,0L727.493,14.861c0,0,27.726,47.476,95.858,47.476
				C874.923,62.338,914.488,21.074,931.465,0z"/>
			<path style="fill:#FAFAFA;" d="M930.499,0L726.877,14.437c0,0,27.726,47.476,95.858,47.476
				C874.307,61.913,913.522,21.074,930.499,0z"/>
			<path style="fill:#F9F9F9;" d="M929.533,0L726.261,14.012c0,0,27.725,47.476,95.858,47.476
				C873.691,61.489,912.556,21.074,929.533,0z"/>
			<path style="fill:#F8F8F8;" d="M928.567,0L725.645,13.588c0,0,27.725,47.476,95.858,47.476
				C873.075,61.064,911.59,21.074,928.567,0z"/>
			<path style="fill:#F7F7F7;" d="M927.601,0L725.029,13.163c0,0,27.726,47.476,95.858,47.476
				C872.459,60.639,910.624,21.074,927.601,0z"/>
			<path style="fill:#F6F6F6;" d="M926.635,0L724.414,12.739c0,0,27.726,47.476,95.858,47.476
				C871.844,60.215,909.658,21.074,926.635,0z"/>
			<path style="fill:#F5F5F5;" d="M925.669,0L723.798,12.314c0,0,27.725,47.476,95.858,47.476
				C871.228,59.79,908.693,21.074,925.669,0z"/>
			<path style="fill:#F4F4F4;" d="M924.703,0L723.182,11.889c0,0,27.725,47.476,95.858,47.476
				C870.612,59.366,907.727,21.074,924.703,0z"/>
			<path style="fill:#F3F3F3;" d="M923.737,0L722.566,11.465c0,0,27.725,47.476,95.858,47.476
				C869.996,58.941,906.76,21.074,923.737,0z"/>
			<path style="fill:#F2F2F2;" d="M922.771,0L721.95,11.04c0,0,27.726,47.476,95.858,47.476C869.38,58.517,905.795,21.074,922.771,0
				z"/>
			<path style="fill:#F1F1F1;" d="M921.805,0l-200.47,10.616c0,0,27.726,47.476,95.858,47.476
				C868.765,58.092,904.829,21.074,921.805,0z"/>
			<path style="fill:#F0F0F0;" d="M920.839,0l-200.12,10.191c0,0,27.725,47.476,95.858,47.476
				C868.149,57.667,903.863,21.074,920.839,0z"/>
			<path style="fill:#EFEFEF;" d="M919.873,0l-199.77,9.767c0,0,27.725,47.476,95.858,47.476
				C867.533,57.243,902.897,21.074,919.873,0z"/>
			<path style="fill:#EEEEEE;" d="M918.907,0l-199.42,9.342c0,0,27.726,47.476,95.858,47.476
				C866.917,56.818,901.931,21.074,918.907,0z"/>
			<path style="fill:#EDEDED;" d="M917.941,0l-199.07,8.917c0,0,27.726,47.476,95.858,47.476
				C866.301,56.394,900.965,21.074,917.941,0z"/>
			<path style="fill:#ECECEC;" d="M916.975,0L718.256,8.493c0,0,27.725,47.476,95.858,47.476
				C865.685,55.969,899.999,21.074,916.975,0z"/>
			<path style="fill:#ECECEC;" d="M916.009,0L717.64,8.068c0,0,27.725,47.476,95.858,47.476C865.07,55.545,899.033,21.074,916.009,0
				z"/>
			<path style="fill:#EBEBEB;" d="M915.043,0L717.024,7.644c0,0,27.725,47.476,95.858,47.476
				C864.454,55.12,898.067,21.074,915.043,0z"/>
			<path style="fill:#EAEAEA;" d="M914.077,0L716.408,7.219c0,0,27.726,47.476,95.858,47.476
				C863.838,54.695,897.101,21.074,914.077,0z"/>
			<path style="fill:#E9E9E9;" d="M913.111,0L715.792,6.795c0,0,27.726,47.476,95.858,47.476
				C863.222,54.271,896.135,21.074,913.111,0z"/>
			<path style="fill:#E8E8E8;" d="M912.145,0L715.177,6.37c0,0,27.725,47.476,95.858,47.476
				C862.607,53.846,895.169,21.074,912.145,0z"/>
			<path style="fill:#E7E7E7;" d="M911.179,0L714.561,5.946c0,0,27.725,47.476,95.858,47.476
				C861.991,53.422,894.203,21.074,911.179,0z"/>
			<path style="fill:#E6E6E6;" d="M910.213,0L713.945,5.521c0,0,27.726,47.476,95.858,47.476
				C861.375,52.997,893.237,21.074,910.213,0z"/>
			<path style="fill:#E5E5E5;" d="M909.247,0L713.329,5.096c0,0,27.726,47.476,95.858,47.476
				C860.759,52.573,892.271,21.074,909.247,0z"/>
			<path style="fill:#E4E4E4;" d="M908.281,0L712.713,4.672c0,0,27.725,47.476,95.858,47.476
				C860.143,52.148,891.305,21.074,908.281,0z"/>
			<path style="fill:#E3E3E3;" d="M907.315,0L712.097,4.247c0,0,27.726,47.476,95.858,47.476
				C859.527,51.723,890.339,21.074,907.315,0z"/>
			<path style="fill:#E2E2E2;" d="M906.349,0L711.482,3.823c0,0,27.725,47.476,95.858,47.476
				C858.912,51.299,889.373,21.074,906.349,0z"/>
			<path style="fill:#E1E1E1;" d="M905.383,0L710.866,3.398c0,0,27.726,47.476,95.858,47.476
				C858.296,50.874,888.407,21.074,905.383,0z"/>
			<path style="fill:#E0E0E0;" d="M904.417,0L710.25,2.974c0,0,27.726,47.476,95.858,47.476C857.68,50.45,887.441,21.074,904.417,0z
				"/>
			<path style="fill:#DFDFDF;" d="M903.451,0L709.634,2.549c0,0,27.725,47.476,95.858,47.476
				C857.064,50.025,886.475,21.074,903.451,0z"/>
			<path style="fill:#DEDEDE;" d="M902.485,0L709.018,2.124c0,0,27.726,47.476,95.858,47.476
				C856.448,49.601,885.509,21.074,902.485,0z"/>
			<path style="fill:#DDDDDD;" d="M901.52,0L708.403,1.7c0,0,27.726,47.476,95.858,47.476C855.833,49.176,884.543,21.074,901.52,0z"
				/>
			<path style="fill:#DCDCDC;" d="M900.554,0L707.787,1.275c0,0,27.726,47.476,95.858,47.476
				C855.217,48.752,883.577,21.074,900.554,0z"/>
			<path style="fill:#DBDBDB;" d="M899.588,0L707.171,0.851c0,0,27.725,47.476,95.858,47.476
				C854.601,48.327,882.611,21.074,899.588,0z"/>
			<path style="fill:#DADADA;" d="M898.622,0L706.555,0.426c0,0,27.726,47.476,95.858,47.476
				C853.985,47.902,881.645,21.074,898.622,0z"/>
			<path style="fill:#D9D9D9;" d="M897.656,0L705.939,0.002c0,0,27.726,47.476,95.858,47.476
				C853.369,47.478,880.679,21.074,897.656,0z"/>
		</g>
		<g style="opacity:0.4;clip-path:url(#SVGID_00000139258031494803486870000002592493700826225808_);">
			<rect x="748.294" y="53.525" style="fill:#FFFFFF;" width="23.926" height="23.451"/>
			<rect x="747.988" y="53.793" style="fill:#FEFEFE;" width="23.926" height="23.451"/>
			<rect x="747.681" y="54.062" style="fill:#FDFDFD;" width="23.926" height="23.451"/>
			<rect x="747.374" y="54.33" style="fill:#FCFCFC;" width="23.926" height="23.451"/>
			<rect x="747.067" y="54.598" style="fill:#FBFBFB;" width="23.926" height="23.451"/>
			<rect x="746.761" y="54.867" style="fill:#FAFAFA;" width="23.926" height="23.451"/>
			<rect x="746.454" y="55.135" style="fill:#F9F9F9;" width="23.926" height="23.451"/>
			<rect x="746.147" y="55.403" style="fill:#F8F8F8;" width="23.926" height="23.451"/>
			<rect x="745.84" y="55.672" style="fill:#F7F7F7;" width="23.926" height="23.451"/>
			<rect x="745.534" y="55.94" style="fill:#F6F6F6;" width="23.926" height="23.451"/>
			<rect x="745.227" y="56.209" style="fill:#F5F5F5;" width="23.926" height="23.451"/>
			<rect x="744.92" y="56.477" style="fill:#F4F4F4;" width="23.926" height="23.451"/>
			<rect x="744.614" y="56.745" style="fill:#F3F3F3;" width="23.926" height="23.451"/>
			<rect x="744.307" y="57.014" style="fill:#F2F2F2;" width="23.926" height="23.451"/>
			<rect x="744" y="57.282" style="fill:#F1F1F1;" width="23.926" height="23.451"/>
			<rect x="743.693" y="57.551" style="fill:#F0F0F0;" width="23.926" height="23.451"/>
			<rect x="743.386" y="57.819" style="fill:#EFEFEF;" width="23.926" height="23.451"/>
			<rect x="743.08" y="58.088" style="fill:#EEEEEE;" width="23.926" height="23.451"/>
			<rect x="742.773" y="58.356" style="fill:#EDEDED;" width="23.926" height="23.451"/>
			<rect x="742.466" y="58.624" style="fill:#ECECEC;" width="23.926" height="23.451"/>
			<rect x="742.16" y="58.893" style="fill:#ECECEC;" width="23.926" height="23.451"/>
			<rect x="741.853" y="59.161" style="fill:#EBEBEB;" width="23.926" height="23.451"/>
			<rect x="741.546" y="59.43" style="fill:#EAEAEA;" width="23.926" height="23.451"/>
			<rect x="741.239" y="59.698" style="fill:#E9E9E9;" width="23.926" height="23.451"/>
			<rect x="740.933" y="59.966" style="fill:#E8E8E8;" width="23.926" height="23.451"/>
			<rect x="740.626" y="60.235" style="fill:#E7E7E7;" width="23.926" height="23.451"/>
			<rect x="740.319" y="60.503" style="fill:#E6E6E6;" width="23.926" height="23.451"/>
			<rect x="740.012" y="60.771" style="fill:#E5E5E5;" width="23.926" height="23.451"/>
			<rect x="739.706" y="61.04" style="fill:#E4E4E4;" width="23.926" height="23.451"/>
			<rect x="739.399" y="61.308" style="fill:#E3E3E3;" width="23.926" height="23.451"/>
			<rect x="739.092" y="61.577" style="fill:#E2E2E2;" width="23.926" height="23.451"/>
			<rect x="738.785" y="61.845" style="fill:#E1E1E1;" width="23.926" height="23.451"/>
			<rect x="738.479" y="62.113" style="fill:#E0E0E0;" width="23.926" height="23.451"/>
			<rect x="738.172" y="62.382" style="fill:#DFDFDF;" width="23.926" height="23.451"/>
			<rect x="737.865" y="62.65" style="fill:#DEDEDE;" width="23.926" height="23.451"/>
			<rect x="737.558" y="62.919" style="fill:#DDDDDD;" width="23.926" height="23.451"/>
			<rect x="737.252" y="63.187" style="fill:#DCDCDC;" width="23.926" height="23.451"/>
			<rect x="736.945" y="63.456" style="fill:#DBDBDB;" width="23.926" height="23.451"/>
			<rect x="736.638" y="63.724" style="fill:#DADADA;" width="23.926" height="23.451"/>
			<rect x="736.331" y="63.992" style="fill:#D9D9D9;" width="23.926" height="23.451"/>
		</g>
		<g style="opacity:0.4;clip-path:url(#SVGID_00000139258031494803486870000002592493700826225808_);">
			<rect x="978.64" y="164.11" style="fill:#FFFFFF;" width="21.793" height="21.361"/>
			<rect x="978.361" y="164.355" style="fill:#FEFEFE;" width="21.793" height="21.361"/>
			<rect x="978.081" y="164.599" style="fill:#FDFDFD;" width="21.793" height="21.361"/>
			<rect x="977.802" y="164.844" style="fill:#FCFCFC;" width="21.793" height="21.361"/>
			<rect x="977.523" y="165.088" style="fill:#FBFBFB;" width="21.793" height="21.361"/>
			<rect x="977.243" y="165.333" style="fill:#FAFAFA;" width="21.793" height="21.361"/>
			<rect x="976.964" y="165.577" style="fill:#F9F9F9;" width="21.793" height="21.361"/>
			<rect x="976.684" y="165.822" style="fill:#F8F8F8;" width="21.793" height="21.361"/>
			<rect x="976.405" y="166.066" style="fill:#F7F7F7;" width="21.793" height="21.361"/>
			<rect x="976.126" y="166.311" style="fill:#F6F6F6;" width="21.793" height="21.361"/>
			<rect x="975.846" y="166.555" style="fill:#F5F5F5;" width="21.793" height="21.361"/>
			<rect x="975.567" y="166.799" style="fill:#F4F4F4;" width="21.793" height="21.361"/>
			<rect x="975.287" y="167.044" style="fill:#F3F3F3;" width="21.793" height="21.361"/>
			<rect x="975.008" y="167.288" style="fill:#F2F2F2;" width="21.793" height="21.361"/>
			<rect x="974.729" y="167.533" style="fill:#F1F1F1;" width="21.793" height="21.361"/>
			<rect x="974.449" y="167.777" style="fill:#F0F0F0;" width="21.793" height="21.361"/>
			<rect x="974.17" y="168.022" style="fill:#EFEFEF;" width="21.793" height="21.361"/>
			<rect x="973.891" y="168.266" style="fill:#EEEEEE;" width="21.793" height="21.361"/>
			<rect x="973.611" y="168.511" style="fill:#EDEDED;" width="21.793" height="21.361"/>
			<rect x="973.332" y="168.755" style="fill:#ECECEC;" width="21.793" height="21.361"/>
			<rect x="973.052" y="169" style="fill:#ECECEC;" width="21.793" height="21.361"/>
			<rect x="972.773" y="169.244" style="fill:#EBEBEB;" width="21.793" height="21.361"/>
			<rect x="972.494" y="169.489" style="fill:#EAEAEA;" width="21.793" height="21.361"/>
			<rect x="972.214" y="169.733" style="fill:#E9E9E9;" width="21.793" height="21.361"/>
			<rect x="971.935" y="169.978" style="fill:#E8E8E8;" width="21.793" height="21.361"/>
			<rect x="971.655" y="170.222" style="fill:#E7E7E7;" width="21.793" height="21.361"/>
			<rect x="971.376" y="170.467" style="fill:#E6E6E6;" width="21.793" height="21.361"/>
			<rect x="971.096" y="170.711" style="fill:#E5E5E5;" width="21.793" height="21.361"/>
			<rect x="970.817" y="170.956" style="fill:#E4E4E4;" width="21.793" height="21.361"/>
			<rect x="970.538" y="171.2" style="fill:#E3E3E3;" width="21.793" height="21.361"/>
			<rect x="970.258" y="171.445" style="fill:#E2E2E2;" width="21.793" height="21.361"/>
			<rect x="969.979" y="171.689" style="fill:#E1E1E1;" width="21.793" height="21.361"/>
			<rect x="969.7" y="171.933" style="fill:#E0E0E0;" width="21.793" height="21.361"/>
			<rect x="969.42" y="172.178" style="fill:#DFDFDF;" width="21.793" height="21.361"/>
			<rect x="969.141" y="172.422" style="fill:#DEDEDE;" width="21.793" height="21.361"/>
			<rect x="968.861" y="172.667" style="fill:#DDDDDD;" width="21.793" height="21.361"/>
			<rect x="968.582" y="172.911" style="fill:#DCDCDC;" width="21.793" height="21.361"/>
			<rect x="968.302" y="173.156" style="fill:#DBDBDB;" width="21.793" height="21.361"/>
			<rect x="968.023" y="173.4" style="fill:#DADADA;" width="21.793" height="21.361"/>
			<rect x="967.744" y="173.645" style="fill:#D9D9D9;" width="21.793" height="21.361"/>
		</g>
		<g style="opacity:0.4;clip-path:url(#SVGID_00000139258031494803486870000002592493700826225808_);">
			<rect x="408.44" y="536.142" style="fill:#FFFFFF;" width="28.284" height="27.723"/>
			<rect x="408.803" y="535.825" style="fill:#FEFEFE;" width="28.284" height="27.723"/>
			<rect x="409.165" y="535.508" style="fill:#FDFDFD;" width="28.284" height="27.723"/>
			<rect x="409.528" y="535.19" style="fill:#FCFCFC;" width="28.284" height="27.723"/>
			<rect x="409.891" y="534.873" style="fill:#FBFBFB;" width="28.284" height="27.723"/>
			<rect x="410.253" y="534.556" style="fill:#FAFAFA;" width="28.284" height="27.723"/>
			<rect x="410.616" y="534.238" style="fill:#F9F9F9;" width="28.284" height="27.723"/>
			<rect x="410.979" y="533.921" style="fill:#F8F8F8;" width="28.284" height="27.723"/>
			<rect x="411.341" y="533.604" style="fill:#F7F7F7;" width="28.284" height="27.723"/>
			<rect x="411.704" y="533.286" style="fill:#F6F6F6;" width="28.284" height="27.723"/>
			<rect x="412.066" y="532.969" style="fill:#F5F5F5;" width="28.284" height="27.723"/>
			<rect x="412.429" y="532.652" style="fill:#F4F4F4;" width="28.284" height="27.723"/>
			<rect x="412.792" y="532.335" style="fill:#F3F3F3;" width="28.284" height="27.723"/>
			<rect x="413.154" y="532.017" style="fill:#F2F2F2;" width="28.284" height="27.723"/>
			<rect x="413.517" y="531.7" style="fill:#F1F1F1;" width="28.284" height="27.723"/>
			<rect x="413.879" y="531.383" style="fill:#F0F0F0;" width="28.284" height="27.723"/>
			<rect x="414.242" y="531.065" style="fill:#EFEFEF;" width="28.284" height="27.723"/>
			<rect x="414.605" y="530.748" style="fill:#EEEEEE;" width="28.284" height="27.723"/>
			<rect x="414.967" y="530.431" style="fill:#EDEDED;" width="28.284" height="27.723"/>
			<rect x="415.33" y="530.114" style="fill:#ECECEC;" width="28.284" height="27.723"/>
			<rect x="415.693" y="529.796" style="fill:#ECECEC;" width="28.284" height="27.723"/>
			<rect x="416.055" y="529.479" style="fill:#EBEBEB;" width="28.284" height="27.723"/>
			<rect x="416.418" y="529.162" style="fill:#EAEAEA;" width="28.284" height="27.723"/>
			<rect x="416.78" y="528.844" style="fill:#E9E9E9;" width="28.284" height="27.723"/>
			<rect x="417.143" y="528.527" style="fill:#E8E8E8;" width="28.284" height="27.723"/>
			<rect x="417.506" y="528.21" style="fill:#E7E7E7;" width="28.284" height="27.723"/>
			<rect x="417.868" y="527.893" style="fill:#E6E6E6;" width="28.284" height="27.723"/>
			<rect x="418.231" y="527.575" style="fill:#E5E5E5;" width="28.284" height="27.723"/>
			<rect x="418.594" y="527.258" style="fill:#E4E4E4;" width="28.284" height="27.723"/>
			<rect x="418.956" y="526.941" style="fill:#E3E3E3;" width="28.284" height="27.723"/>
			<rect x="419.319" y="526.623" style="fill:#E2E2E2;" width="28.284" height="27.723"/>
			<rect x="419.681" y="526.306" style="fill:#E1E1E1;" width="28.284" height="27.723"/>
			<rect x="420.044" y="525.989" style="fill:#E0E0E0;" width="28.284" height="27.723"/>
			<rect x="420.407" y="525.671" style="fill:#DFDFDF;" width="28.284" height="27.723"/>
			<rect x="420.769" y="525.354" style="fill:#DEDEDE;" width="28.284" height="27.723"/>
			<rect x="421.132" y="525.037" style="fill:#DDDDDD;" width="28.284" height="27.723"/>
			<rect x="421.495" y="524.719" style="fill:#DCDCDC;" width="28.284" height="27.723"/>
			<rect x="421.857" y="524.402" style="fill:#DBDBDB;" width="28.284" height="27.723"/>
			<rect x="422.22" y="524.085" style="fill:#DADADA;" width="28.284" height="27.723"/>
			<rect x="422.582" y="523.768" style="fill:#D9D9D9;" width="28.284" height="27.723"/>
		</g>
		<g style="opacity:0.4;clip-path:url(#SVGID_00000139258031494803486870000002592493700826225808_);">
			<rect x="364.168" y="586.267" style="fill:#FFFFFF;" width="29.642" height="29.054"/>
			<rect x="364.548" y="585.935" style="fill:#FEFEFE;" width="29.642" height="29.054"/>
			<rect x="364.928" y="585.602" style="fill:#FDFDFD;" width="29.642" height="29.054"/>
			<rect x="365.309" y="585.27" style="fill:#FCFCFC;" width="29.642" height="29.054"/>
			<rect x="365.689" y="584.937" style="fill:#FBFBFB;" width="29.642" height="29.054"/>
			<rect x="366.069" y="584.605" style="fill:#FAFAFA;" width="29.642" height="29.054"/>
			<rect x="366.449" y="584.272" style="fill:#F9F9F9;" width="29.642" height="29.054"/>
			<rect x="366.829" y="583.94" style="fill:#F8F8F8;" width="29.642" height="29.054"/>
			<rect x="367.209" y="583.607" style="fill:#F7F7F7;" width="29.642" height="29.054"/>
			<rect x="367.589" y="583.274" style="fill:#F6F6F6;" width="29.642" height="29.054"/>
			<rect x="367.969" y="582.942" style="fill:#F5F5F5;" width="29.642" height="29.054"/>
			<rect x="368.349" y="582.609" style="fill:#F4F4F4;" width="29.642" height="29.054"/>
			<rect x="368.729" y="582.277" style="fill:#F3F3F3;" width="29.642" height="29.054"/>
			<rect x="369.109" y="581.944" style="fill:#F2F2F2;" width="29.642" height="29.054"/>
			<rect x="369.489" y="581.612" style="fill:#F1F1F1;" width="29.642" height="29.054"/>
			<rect x="369.869" y="581.279" style="fill:#F0F0F0;" width="29.642" height="29.054"/>
			<rect x="370.249" y="580.947" style="fill:#EFEFEF;" width="29.642" height="29.054"/>
			<rect x="370.629" y="580.614" style="fill:#EEEEEE;" width="29.642" height="29.054"/>
			<rect x="371.009" y="580.282" style="fill:#EDEDED;" width="29.642" height="29.054"/>
			<rect x="371.389" y="579.949" style="fill:#ECECEC;" width="29.642" height="29.054"/>
			<rect x="371.769" y="579.617" style="fill:#ECECEC;" width="29.642" height="29.054"/>
			<rect x="372.149" y="579.284" style="fill:#EBEBEB;" width="29.642" height="29.054"/>
			<rect x="372.529" y="578.952" style="fill:#EAEAEA;" width="29.642" height="29.054"/>
			<rect x="372.909" y="578.619" style="fill:#E9E9E9;" width="29.642" height="29.054"/>
			<rect x="373.289" y="578.287" style="fill:#E8E8E8;" width="29.642" height="29.054"/>
			<rect x="373.669" y="577.954" style="fill:#E7E7E7;" width="29.642" height="29.054"/>
			<rect x="374.049" y="577.622" style="fill:#E6E6E6;" width="29.642" height="29.054"/>
			<rect x="374.429" y="577.289" style="fill:#E5E5E5;" width="29.642" height="29.054"/>
			<rect x="374.809" y="576.957" style="fill:#E4E4E4;" width="29.642" height="29.054"/>
			<rect x="375.189" y="576.624" style="fill:#E3E3E3;" width="29.642" height="29.054"/>
			<rect x="375.569" y="576.292" style="fill:#E2E2E2;" width="29.642" height="29.054"/>
			<rect x="375.949" y="575.959" style="fill:#E1E1E1;" width="29.642" height="29.054"/>
			<rect x="376.329" y="575.627" style="fill:#E0E0E0;" width="29.642" height="29.054"/>
			<rect x="376.709" y="575.294" style="fill:#DFDFDF;" width="29.642" height="29.054"/>
			<rect x="377.089" y="574.961" style="fill:#DEDEDE;" width="29.642" height="29.054"/>
			<rect x="377.469" y="574.629" style="fill:#DDDDDD;" width="29.642" height="29.054"/>
			<rect x="377.849" y="574.296" style="fill:#DCDCDC;" width="29.642" height="29.054"/>
			<rect x="378.229" y="573.964" style="fill:#DBDBDB;" width="29.642" height="29.054"/>
			<rect x="378.609" y="573.631" style="fill:#DADADA;" width="29.642" height="29.054"/>
			<rect x="378.989" y="573.299" style="fill:#D9D9D9;" width="29.642" height="29.054"/>
		</g>
		<g style="opacity:0.4;clip-path:url(#SVGID_00000139258031494803486870000002592493700826225808_);">
			<rect x="6.401" y="443.723" style="fill:#FFFFFF;" width="29.642" height="29.054"/>
			<rect x="6.781" y="443.39" style="fill:#FEFEFE;" width="29.642" height="29.054"/>
			<rect x="7.161" y="443.058" style="fill:#FDFDFD;" width="29.642" height="29.054"/>
			<rect x="7.541" y="442.725" style="fill:#FCFCFC;" width="29.642" height="29.054"/>
			<rect x="7.921" y="442.392" style="fill:#FBFBFB;" width="29.642" height="29.054"/>
			<rect x="8.301" y="442.06" style="fill:#FAFAFA;" width="29.642" height="29.054"/>
			<rect x="8.681" y="441.728" style="fill:#F9F9F9;" width="29.642" height="29.054"/>
			<rect x="9.061" y="441.395" style="fill:#F8F8F8;" width="29.642" height="29.054"/>
			<rect x="9.441" y="441.062" style="fill:#F7F7F7;" width="29.642" height="29.054"/>
			<rect x="9.821" y="440.73" style="fill:#F6F6F6;" width="29.642" height="29.054"/>
			<rect x="10.201" y="440.397" style="fill:#F5F5F5;" width="29.642" height="29.054"/>
			<rect x="10.581" y="440.065" style="fill:#F4F4F4;" width="29.642" height="29.054"/>
			<rect x="10.961" y="439.732" style="fill:#F3F3F3;" width="29.642" height="29.054"/>
			<rect x="11.341" y="439.4" style="fill:#F2F2F2;" width="29.642" height="29.054"/>
			<rect x="11.721" y="439.067" style="fill:#F1F1F1;" width="29.642" height="29.054"/>
			<rect x="12.101" y="438.735" style="fill:#F0F0F0;" width="29.642" height="29.054"/>
			<rect x="12.481" y="438.402" style="fill:#EFEFEF;" width="29.642" height="29.054"/>
			<rect x="12.861" y="438.07" style="fill:#EEEEEE;" width="29.642" height="29.054"/>
			<rect x="13.241" y="437.737" style="fill:#EDEDED;" width="29.642" height="29.054"/>
			<rect x="13.621" y="437.405" style="fill:#ECECEC;" width="29.642" height="29.054"/>
			<rect x="14.001" y="437.072" style="fill:#ECECEC;" width="29.642" height="29.054"/>
			<rect x="14.381" y="436.74" style="fill:#EBEBEB;" width="29.642" height="29.054"/>
			<rect x="14.761" y="436.407" style="fill:#EAEAEA;" width="29.642" height="29.054"/>
			<rect x="15.141" y="436.075" style="fill:#E9E9E9;" width="29.642" height="29.054"/>
			<rect x="15.521" y="435.742" style="fill:#E8E8E8;" width="29.642" height="29.054"/>
			<rect x="15.901" y="435.409" style="fill:#E7E7E7;" width="29.642" height="29.054"/>
			<rect x="16.281" y="435.077" style="fill:#E6E6E6;" width="29.642" height="29.054"/>
			<rect x="16.662" y="434.745" style="fill:#E5E5E5;" width="29.642" height="29.054"/>
			<rect x="17.042" y="434.412" style="fill:#E4E4E4;" width="29.642" height="29.054"/>
			<rect x="17.421" y="434.079" style="fill:#E3E3E3;" width="29.642" height="29.054"/>
			<rect x="17.802" y="433.747" style="fill:#E2E2E2;" width="29.642" height="29.054"/>
			<rect x="18.181" y="433.414" style="fill:#E1E1E1;" width="29.642" height="29.054"/>
			<rect x="18.562" y="433.082" style="fill:#E0E0E0;" width="29.642" height="29.054"/>
			<rect x="18.942" y="432.749" style="fill:#DFDFDF;" width="29.642" height="29.054"/>
			<rect x="19.322" y="432.417" style="fill:#DEDEDE;" width="29.642" height="29.054"/>
			<rect x="19.702" y="432.084" style="fill:#DDDDDD;" width="29.642" height="29.054"/>
			<rect x="20.082" y="431.752" style="fill:#DCDCDC;" width="29.642" height="29.054"/>
			<rect x="20.462" y="431.419" style="fill:#DBDBDB;" width="29.642" height="29.054"/>
			<rect x="20.842" y="431.087" style="fill:#DADADA;" width="29.642" height="29.054"/>
			<rect x="21.222" y="430.754" style="fill:#D9D9D9;" width="29.642" height="29.054"/>
		</g>
		<g style="opacity:0.4;clip-path:url(#SVGID_00000139258031494803486870000002592493700826225808_);">
			<rect x="1032.352" y="27.056" style="fill:#FFFFFF;" width="58.153" height="56.999"/>
			<polygon style="fill:#FEFEFE;" points="1089.76,27.708 1031.607,27.708 1032.352,83.947 1089.76,84.708 			"/>
			<polygon style="fill:#FDFDFD;" points="1089.014,28.361 1030.861,28.361 1032.352,83.838 1089.014,85.36 			"/>
			<polygon style="fill:#FCFCFC;" points="1088.269,29.013 1030.115,29.013 1032.352,83.73 1088.269,86.013 			"/>
			<polygon style="fill:#FBFBFB;" points="1087.523,29.666 1029.37,29.666 1032.352,83.621 1087.523,86.665 			"/>
			<polygon style="fill:#FAFAFA;" points="1086.777,30.318 1028.624,30.318 1032.352,83.512 1086.777,87.317 			"/>
			<polygon style="fill:#F9F9F9;" points="1086.032,30.97 1027.879,30.97 1032.352,83.404 1086.032,87.97 			"/>
			<polygon style="fill:#F8F8F8;" points="1085.286,31.623 1027.133,31.623 1032.352,83.295 1085.286,88.622 			"/>
			<polygon style="fill:#F7F7F7;" points="1084.541,32.275 1026.388,32.275 1032.352,83.187 1084.541,89.274 			"/>
			<polygon style="fill:#F6F6F6;" points="1083.795,32.927 1025.642,32.927 1032.352,83.078 1083.795,89.927 			"/>
			<polygon style="fill:#F5F5F5;" points="1083.05,33.58 1024.897,33.58 1032.352,82.969 1083.05,90.579 			"/>
			<polygon style="fill:#F4F4F4;" points="1082.304,34.232 1024.151,34.232 1032.352,82.861 1082.304,91.232 			"/>
			<polygon style="fill:#F3F3F3;" points="1081.559,34.885 1023.406,34.885 1032.352,82.752 1081.559,91.884 			"/>
			<polygon style="fill:#F2F2F2;" points="1080.813,35.537 1022.66,35.537 1032.352,82.643 1080.813,92.536 			"/>
			<polygon style="fill:#F1F1F1;" points="1080.068,36.189 1021.914,36.189 1032.352,82.535 1080.068,93.189 			"/>
			<polygon style="fill:#F0F0F0;" points="1079.322,36.842 1021.169,36.842 1032.352,82.426 1079.322,93.841 			"/>
			<polygon style="fill:#EFEFEF;" points="1078.576,37.494 1020.423,37.494 1032.352,82.317 1078.576,94.493 			"/>
			<polygon style="fill:#EEEEEE;" points="1077.831,38.146 1019.678,38.146 1032.352,82.209 1077.831,95.146 			"/>
			<polygon style="fill:#EDEDED;" points="1077.085,38.799 1018.932,38.799 1032.352,82.1 1077.085,95.798 			"/>
			<polygon style="fill:#ECECEC;" points="1076.34,39.451 1018.187,39.451 1032.352,81.992 1076.34,96.451 			"/>
			<polygon style="fill:#ECECEC;" points="1075.594,40.104 1017.441,40.104 1032.352,81.883 1075.594,97.103 			"/>
			<polygon style="fill:#EBEBEB;" points="1074.849,40.756 1016.695,40.756 1032.352,81.774 1074.849,97.755 			"/>
			<polygon style="fill:#EAEAEA;" points="1074.103,41.408 1015.95,41.408 1032.352,81.666 1074.103,98.408 			"/>
			<polygon style="fill:#E9E9E9;" points="1073.358,42.061 1015.204,42.061 1032.352,81.557 1073.358,99.06 			"/>
			<polygon style="fill:#E8E8E8;" points="1072.612,42.713 1014.459,42.713 1032.352,81.449 1072.612,99.712 			"/>
			<polygon style="fill:#E7E7E7;" points="1071.866,43.365 1013.713,43.365 1032.352,81.34 1071.866,100.365 			"/>
			<polygon style="fill:#E6E6E6;" points="1071.121,44.018 1012.968,44.018 1032.352,81.231 1071.121,101.017 			"/>
			<polygon style="fill:#E5E5E5;" points="1070.375,44.67 1012.222,44.67 1032.352,81.123 1070.375,101.67 			"/>
			<polygon style="fill:#E4E4E4;" points="1069.63,45.322 1011.477,45.322 1032.352,81.014 1069.63,102.322 			"/>
			<polygon style="fill:#E3E3E3;" points="1068.884,45.975 1010.731,45.975 1032.352,80.905 1068.884,102.974 			"/>
			<polygon style="fill:#E2E2E2;" points="1068.139,46.627 1009.985,46.627 1032.352,80.797 1068.139,103.627 			"/>
			<polygon style="fill:#E1E1E1;" points="1067.393,47.28 1009.24,47.28 1032.352,80.688 1067.393,104.279 			"/>
			<polygon style="fill:#E0E0E0;" points="1066.648,47.932 1008.494,47.932 1032.352,80.579 1066.648,104.931 			"/>
			<polygon style="fill:#DFDFDF;" points="1065.902,48.584 1007.749,48.584 1032.352,80.471 1065.902,105.584 			"/>
			<polygon style="fill:#DEDEDE;" points="1065.156,49.237 1007.003,49.237 1032.352,80.362 1065.156,106.236 			"/>
			<polygon style="fill:#DDDDDD;" points="1064.411,49.889 1006.258,49.889 1032.352,80.254 1064.411,106.888 			"/>
			<polygon style="fill:#DCDCDC;" points="1063.665,50.541 1005.512,50.541 1032.352,80.145 1063.665,107.541 			"/>
			<polygon style="fill:#DBDBDB;" points="1062.92,51.194 1004.767,51.194 1032.352,80.036 1062.92,108.193 			"/>
			<polygon style="fill:#DADADA;" points="1062.174,51.846 1004.021,51.846 1032.352,79.928 1062.174,108.845 			"/>
			<polygon style="fill:#D9D9D9;" points="1003.276,52.499 1032.352,79.819 1061.429,109.498 1061.429,52.499 			"/>
		</g>
		<g style="opacity:0.5;clip-path:url(#SVGID_00000139258031494803486870000002592493700826225808_);">
			<g>
				<path style="fill:#FFFFFF;" d="M78.02,298.187c-30.252,3.034-53.511,30.43-53.511,63.796s23.259,60.763,53.511,63.797V298.187z
					 M84.02,432.138L80.888,432c-34.979-1.533-62.379-32.288-62.379-70.017c0-37.729,27.4-68.483,62.379-70.016l3.131-0.137V432.138
					z"/>
			</g>
			<path style="fill:#FEFEFE;" d="M78.409,297.865c-30.252,3.034-53.511,30.43-53.511,63.796s23.259,60.763,53.511,63.797V297.865z
				 M84.409,431.815l-3.131-0.138c-34.979-1.533-62.379-32.288-62.379-70.017c0-37.729,27.4-68.483,62.379-70.016l3.131-0.137
				V431.815z"/>
			<path style="fill:#FDFDFD;" d="M78.799,297.542c-30.252,3.034-53.511,30.43-53.511,63.796s23.259,60.763,53.511,63.797V297.542z
				 M84.799,431.493l-3.131-0.138c-34.979-1.533-62.379-32.288-62.379-70.017c0-37.729,27.4-68.483,62.379-70.016l3.131-0.137
				V431.493z"/>
			<path style="fill:#FCFCFC;" d="M79.188,297.219c-30.252,3.034-53.511,30.43-53.511,63.796s23.259,60.763,53.511,63.797V297.219z
				 M85.188,431.17l-3.131-0.138c-34.979-1.533-62.379-32.288-62.379-70.017c0-37.729,27.4-68.483,62.379-70.016l3.131-0.137V431.17
				z"/>
			<path style="fill:#FBFBFB;" d="M79.577,296.897c-30.252,3.034-53.511,30.43-53.511,63.796s23.259,60.763,53.511,63.797V296.897z
				 M85.577,430.847l-3.131-0.138c-34.979-1.533-62.379-32.288-62.379-70.017c0-37.729,27.4-68.483,62.379-70.016l3.131-0.137
				V430.847z"/>
			<path style="fill:#FAFAFA;" d="M79.967,296.574c-30.252,3.034-53.511,30.43-53.511,63.796s23.259,60.763,53.511,63.797V296.574z
				 M85.967,430.525l-3.131-0.138c-34.979-1.533-62.379-32.288-62.379-70.017c0-37.729,27.4-68.483,62.379-70.016l3.131-0.137
				V430.525z"/>
			<path style="fill:#F9F9F9;" d="M80.356,296.251c-30.252,3.034-53.511,30.43-53.511,63.796s23.259,60.763,53.511,63.797V296.251z
				 M86.356,430.202l-3.131-0.138c-34.979-1.533-62.379-32.288-62.379-70.017c0-37.729,27.4-68.483,62.379-70.016l3.131-0.137
				V430.202z"/>
			<path style="fill:#F8F8F8;" d="M80.746,295.929c-30.252,3.034-53.511,30.43-53.511,63.796s23.259,60.763,53.511,63.797V295.929z
				 M86.746,429.88l-3.131-0.138c-34.979-1.533-62.379-32.288-62.379-70.017c0-37.729,27.4-68.483,62.379-70.016l3.131-0.137V429.88
				z"/>
			<path style="fill:#F7F7F7;" d="M81.135,295.606c-30.252,3.034-53.511,30.43-53.511,63.796s23.259,60.763,53.511,63.797V295.606z
				 M87.135,429.557l-3.131-0.138c-34.979-1.533-62.379-32.287-62.379-70.017c0-37.728,27.4-68.483,62.379-70.016l3.131-0.137
				V429.557z"/>
			<path style="fill:#F6F6F6;" d="M81.525,295.284c-30.252,3.034-53.511,30.43-53.511,63.796s23.259,60.763,53.511,63.797V295.284z
				 M87.525,429.234l-3.131-0.138c-34.979-1.533-62.379-32.288-62.379-70.017c0-37.728,27.4-68.483,62.379-70.016l3.131-0.137
				V429.234z"/>
			<path style="fill:#F5F5F5;" d="M81.914,294.961c-30.252,3.034-53.511,30.43-53.511,63.796s23.259,60.763,53.511,63.797V294.961z
				 M87.914,428.912l-3.131-0.138c-34.979-1.533-62.379-32.288-62.379-70.017c0-37.728,27.4-68.483,62.379-70.016l3.131-0.137
				V428.912z"/>
			<path style="fill:#F4F4F4;" d="M82.304,294.638c-30.252,3.034-53.511,30.43-53.511,63.796s23.259,60.763,53.511,63.797V294.638z
				 M88.304,428.589l-3.131-0.138c-34.979-1.533-62.379-32.288-62.379-70.017c0-37.729,27.4-68.483,62.379-70.016l3.131-0.137
				V428.589z"/>
			<path style="fill:#F3F3F3;" d="M82.693,294.316c-30.252,3.034-53.511,30.43-53.511,63.796s23.259,60.763,53.511,63.797V294.316z
				 M88.693,428.267l-3.131-0.138c-34.979-1.533-62.379-32.288-62.379-70.017c0-37.729,27.4-68.483,62.379-70.016l3.131-0.137
				V428.267z"/>
			<path style="fill:#F2F2F2;" d="M83.082,293.993c-30.252,3.034-53.511,30.43-53.511,63.796s23.259,60.763,53.511,63.797V293.993z
				 M89.082,427.944l-3.131-0.138c-34.979-1.533-62.379-32.288-62.379-70.017c0-37.728,27.4-68.483,62.379-70.016l3.131-0.137
				V427.944z"/>
			<path style="fill:#F1F1F1;" d="M83.472,293.671c-30.252,3.034-53.511,30.43-53.511,63.796s23.259,60.763,53.511,63.797V293.671z
				 M89.472,427.621l-3.131-0.138c-34.979-1.533-62.379-32.288-62.379-70.017c0-37.728,27.4-68.483,62.379-70.016l3.131-0.137
				V427.621z"/>
			<path style="fill:#F0F0F0;" d="M83.861,293.348c-30.252,3.034-53.511,30.43-53.511,63.796s23.259,60.763,53.511,63.797V293.348z
				 M89.861,427.299l-3.131-0.138c-34.979-1.533-62.379-32.288-62.379-70.017c0-37.728,27.4-68.483,62.379-70.016l3.131-0.137
				V427.299z"/>
			<path style="fill:#EFEFEF;" d="M84.251,293.025c-30.252,3.034-53.511,30.43-53.511,63.796s23.259,60.763,53.511,63.797V293.025z
				 M90.251,426.976l-3.131-0.138c-34.979-1.533-62.379-32.288-62.379-70.017c0-37.728,27.4-68.483,62.379-70.016l3.131-0.137
				V426.976z"/>
			<path style="fill:#EEEEEE;" d="M84.64,292.703c-30.252,3.034-53.511,30.43-53.511,63.796c0,33.367,23.259,60.763,53.511,63.797
				V292.703z M90.64,426.653l-3.131-0.138c-34.979-1.533-62.379-32.288-62.379-70.017c0-37.728,27.4-68.483,62.379-70.016
				l3.131-0.137V426.653z"/>
			<path style="fill:#EDEDED;" d="M85.03,292.38c-30.252,3.034-53.511,30.43-53.511,63.796s23.259,60.763,53.511,63.797V292.38z
				 M91.03,426.331l-3.131-0.138c-34.979-1.533-62.379-32.288-62.379-70.017c0-37.728,27.4-68.483,62.379-70.016l3.131-0.137
				V426.331z"/>
			<path style="fill:#ECECEC;" d="M85.419,292.057c-30.252,3.034-53.511,30.43-53.511,63.796s23.259,60.763,53.511,63.797V292.057z
				 M91.419,426.008l-3.131-0.138c-34.979-1.533-62.379-32.288-62.379-70.017c0-37.728,27.4-68.483,62.379-70.016l3.131-0.137
				V426.008z"/>
			<path style="fill:#ECECEC;" d="M85.809,291.735c-30.252,3.034-53.511,30.43-53.511,63.796s23.259,60.763,53.511,63.797V291.735z
				 M91.809,425.685l-3.131-0.138c-34.979-1.533-62.379-32.288-62.379-70.017c0-37.728,27.4-68.483,62.379-70.016l3.131-0.137
				V425.685z"/>
			<path style="fill:#EBEBEB;" d="M86.198,291.412c-30.252,3.034-53.511,30.43-53.511,63.796s23.259,60.763,53.511,63.797V291.412z
				 M92.198,425.363l-3.131-0.138c-34.979-1.533-62.379-32.288-62.379-70.017c0-37.729,27.4-68.483,62.379-70.016l3.131-0.137
				V425.363z"/>
			<path style="fill:#EAEAEA;" d="M86.588,291.09c-30.252,3.034-53.511,30.43-53.511,63.796s23.259,60.763,53.511,63.797V291.09z
				 M92.588,425.04l-3.131-0.138c-34.979-1.533-62.379-32.288-62.379-70.017c0-37.728,27.4-68.483,62.379-70.016l3.131-0.137V425.04
				z"/>
			<path style="fill:#E9E9E9;" d="M86.977,290.767c-30.252,3.034-53.511,30.43-53.511,63.796s23.259,60.763,53.511,63.797V290.767z
				 M92.977,424.718l-3.131-0.138c-34.979-1.533-62.379-32.288-62.379-70.017c0-37.728,27.4-68.483,62.379-70.016l3.131-0.137
				V424.718z"/>
			<path style="fill:#E8E8E8;" d="M87.366,290.444c-30.252,3.034-53.511,30.43-53.511,63.796s23.259,60.763,53.511,63.797V290.444z
				 M93.366,424.395l-3.131-0.138c-34.979-1.533-62.379-32.288-62.379-70.017c0-37.728,27.4-68.483,62.379-70.016l3.131-0.137
				V424.395z"/>
			<path style="fill:#E7E7E7;" d="M87.756,290.122c-30.252,3.034-53.511,30.43-53.511,63.796s23.259,60.763,53.511,63.797V290.122z
				 M93.756,424.072l-3.131-0.138c-34.979-1.533-62.379-32.288-62.379-70.017c0-37.728,27.4-68.483,62.379-70.016l3.131-0.137
				V424.072z"/>
			<path style="fill:#E6E6E6;" d="M88.145,289.799c-30.252,3.034-53.511,30.43-53.511,63.796s23.259,60.763,53.511,63.797V289.799z
				 M94.145,423.75l-3.131-0.138c-34.979-1.533-62.379-32.288-62.379-70.017c0-37.729,27.4-68.483,62.379-70.016l3.131-0.137V423.75
				z"/>
			<path style="fill:#E5E5E5;" d="M88.535,289.476c-30.252,3.034-53.511,30.43-53.511,63.796s23.259,60.763,53.511,63.797V289.476z
				 M94.535,423.427l-3.131-0.138c-34.979-1.533-62.379-32.288-62.379-70.017c0-37.728,27.4-68.483,62.379-70.016l3.131-0.137
				V423.427z"/>
			<path style="fill:#E4E4E4;" d="M88.924,289.154c-30.252,3.034-53.511,30.43-53.511,63.796s23.259,60.763,53.511,63.797V289.154z
				 M94.924,423.104l-3.131-0.138c-34.979-1.533-62.379-32.288-62.379-70.017c0-37.728,27.4-68.483,62.379-70.016l3.131-0.137
				V423.104z"/>
			<path style="fill:#E3E3E3;" d="M89.314,288.831c-30.252,3.034-53.511,30.43-53.511,63.796s23.259,60.763,53.511,63.797V288.831z
				 M95.314,422.782l-3.131-0.138c-34.979-1.533-62.379-32.288-62.379-70.017c0-37.728,27.4-68.483,62.379-70.016l3.131-0.137
				V422.782z"/>
			<path style="fill:#E2E2E2;" d="M89.703,288.509c-30.252,3.034-53.511,30.43-53.511,63.796s23.259,60.763,53.511,63.797V288.509z
				 M95.703,422.459l-3.131-0.138c-34.979-1.533-62.379-32.288-62.379-70.017c0-37.729,27.4-68.483,62.379-70.016l3.131-0.137
				V422.459z"/>
			<path style="fill:#E1E1E1;" d="M90.092,288.186c-30.252,3.034-53.511,30.43-53.511,63.796s23.259,60.763,53.511,63.797V288.186z
				 M96.092,422.137l-3.131-0.138c-34.979-1.533-62.379-32.288-62.379-70.017c0-37.728,27.4-68.483,62.379-70.016l3.131-0.137
				V422.137z"/>
			<path style="fill:#E0E0E0;" d="M90.482,287.863c-30.252,3.034-53.511,30.43-53.511,63.796s23.259,60.763,53.511,63.797V287.863z
				 M96.482,421.814l-3.131-0.138c-34.979-1.533-62.379-32.288-62.379-70.017c0-37.728,27.4-68.483,62.379-70.016l3.131-0.137
				V421.814z"/>
			<path style="fill:#DFDFDF;" d="M90.871,287.541c-30.252,3.034-53.511,30.43-53.511,63.796s23.259,60.763,53.511,63.797V287.541z
				 M96.871,421.491l-3.131-0.138c-34.979-1.533-62.379-32.288-62.379-70.017c0-37.728,27.4-68.483,62.379-70.016l3.131-0.137
				V421.491z"/>
			<path style="fill:#DEDEDE;" d="M91.261,287.218c-30.252,3.034-53.511,30.43-53.511,63.796s23.259,60.763,53.511,63.797V287.218z
				 M97.261,421.169l-3.131-0.138c-34.979-1.533-62.379-32.288-62.379-70.017c0-37.728,27.4-68.483,62.379-70.016l3.131-0.137
				V421.169z"/>
			<path style="fill:#DDDDDD;" d="M91.65,286.896c-30.252,3.034-53.511,30.43-53.511,63.796s23.259,60.763,53.511,63.797V286.896z
				 M97.65,420.846l-3.131-0.138c-34.979-1.533-62.379-32.288-62.379-70.017c0-37.729,27.4-68.483,62.379-70.016l3.131-0.137
				V420.846z"/>
			<path style="fill:#DCDCDC;" d="M92.04,286.573c-30.252,3.034-53.511,30.43-53.511,63.796s23.259,60.763,53.511,63.797V286.573z
				 M98.04,420.523l-3.131-0.138c-34.979-1.533-62.379-32.288-62.379-70.017c0-37.729,27.4-68.483,62.379-70.016l3.131-0.137
				V420.523z"/>
			<path style="fill:#DBDBDB;" d="M92.429,286.25c-30.252,3.034-53.511,30.43-53.511,63.796s23.259,60.763,53.511,63.797V286.25z
				 M98.429,420.201l-3.131-0.138c-34.979-1.533-62.379-32.288-62.379-70.017c0-37.728,27.4-68.483,62.379-70.016l3.131-0.137
				V420.201z"/>
			<path style="fill:#DADADA;" d="M92.819,285.928c-30.252,3.034-53.511,30.43-53.511,63.796s23.259,60.763,53.511,63.797V285.928z
				 M98.819,419.878l-3.131-0.138c-34.979-1.533-62.379-32.288-62.379-70.017c0-37.728,27.4-68.483,62.379-70.016l3.131-0.137
				V419.878z"/>
			<g>
				<path style="fill:#D9D9D9;" d="M93.208,285.605c-30.252,3.034-53.511,30.43-53.511,63.796s23.259,60.763,53.511,63.797V285.605z
					 M99.208,419.556l-3.131-0.138c-34.979-1.533-62.379-32.288-62.379-70.017c0-37.728,27.4-68.483,62.379-70.016l3.131-0.137
					V419.556z"/>
			</g>
		</g>
		<g style="opacity:0.5;clip-path:url(#SVGID_00000139258031494803486870000002592493700826225808_);">
			<g>
				<polygon style="fill:#FFFFFF;" points="-24.946,655.564 -24.946,642.706 149.447,405.382 154.649,412.981 				"/>
			</g>
			<polygon style="fill:#FEFEFE;" points="-24.306,655.654 -24.306,642.795 150.106,405.45 155.288,413.071 			"/>
			<polygon style="fill:#FDFDFD;" points="-23.667,655.743 -23.667,642.885 150.766,405.518 155.928,413.161 			"/>
			<polygon style="fill:#FCFCFC;" points="-23.027,655.833 -23.027,642.974 151.425,405.585 156.568,413.25 			"/>
			<polygon style="fill:#FBFBFB;" points="-22.387,655.923 -22.387,643.064 152.084,405.653 157.207,413.34 			"/>
			<polygon style="fill:#FAFAFA;" points="-21.748,656.012 -21.748,643.154 152.743,405.721 157.847,413.43 			"/>
			<polygon style="fill:#F9F9F9;" points="-21.108,656.102 -21.108,643.243 153.403,405.789 158.487,413.519 			"/>
			<polygon style="fill:#F8F8F8;" points="-20.469,656.192 -20.469,643.333 154.062,405.856 159.126,413.609 			"/>
			<polygon style="fill:#F7F7F7;" points="-19.829,656.281 -19.829,643.423 154.721,405.924 159.766,413.698 			"/>
			<polygon style="fill:#F6F6F6;" points="-19.189,656.371 -19.189,643.512 155.38,405.992 160.406,413.788 			"/>
			<polygon style="fill:#F5F5F5;" points="-18.55,656.46 -18.55,643.602 156.04,406.06 161.045,413.878 			"/>
			<polygon style="fill:#F4F4F4;" points="-17.91,656.55 -17.91,643.692 156.699,406.127 161.685,413.967 			"/>
			<polygon style="fill:#F3F3F3;" points="-17.27,656.64 -17.27,643.781 157.358,406.195 162.324,414.057 			"/>
			<polygon style="fill:#F2F2F2;" points="-16.631,656.729 -16.631,643.871 158.018,406.263 162.964,414.146 			"/>
			<polygon style="fill:#F1F1F1;" points="-15.991,656.819 -15.991,643.96 158.677,406.33 163.604,414.236 			"/>
			<polygon style="fill:#F0F0F0;" points="-15.351,656.909 -15.351,644.05 159.336,406.398 164.243,414.326 			"/>
			<polygon style="fill:#EFEFEF;" points="-14.712,656.998 -14.712,644.14 159.996,406.466 164.883,414.415 			"/>
			<polygon style="fill:#EEEEEE;" points="-14.072,657.088 -14.072,644.229 160.655,406.534 165.523,414.505 			"/>
			<polygon style="fill:#EDEDED;" points="-13.432,657.177 -13.432,644.319 161.314,406.601 166.162,414.595 			"/>
			<polygon style="fill:#ECECEC;" points="-12.793,657.267 -12.793,644.408 161.973,406.669 166.802,414.684 			"/>
			<polygon style="fill:#ECECEC;" points="-12.153,657.357 -12.153,644.498 162.633,406.737 167.442,414.774 			"/>
			<polygon style="fill:#EBEBEB;" points="-11.514,657.446 -11.514,644.588 163.292,406.805 168.081,414.863 			"/>
			<polygon style="fill:#EAEAEA;" points="-10.874,657.536 -10.874,644.677 163.951,406.872 168.721,414.953 			"/>
			<polygon style="fill:#E9E9E9;" points="-10.234,657.625 -10.234,644.767 164.611,406.94 169.361,415.043 			"/>
			<polygon style="fill:#E8E8E8;" points="-9.595,657.715 -9.595,644.857 165.27,407.008 170,415.132 			"/>
			<polygon style="fill:#E7E7E7;" points="-8.955,657.805 -8.955,644.946 165.929,407.075 170.64,415.222 			"/>
			<polygon style="fill:#E6E6E6;" points="-8.315,657.894 -8.315,645.036 166.589,407.143 171.279,415.311 			"/>
			<polygon style="fill:#E5E5E5;" points="-7.676,657.984 -7.676,645.125 167.248,407.211 171.919,415.401 			"/>
			<polygon style="fill:#E4E4E4;" points="-7.036,658.073 -7.036,645.215 167.907,407.279 172.559,415.491 			"/>
			<polygon style="fill:#E3E3E3;" points="-6.396,658.163 -6.396,645.305 168.566,407.346 173.198,415.58 			"/>
			<polygon style="fill:#E2E2E2;" points="-5.757,658.253 -5.757,645.394 169.226,407.414 173.838,415.67 			"/>
			<polygon style="fill:#E1E1E1;" points="-5.117,658.342 -5.117,645.484 169.885,407.482 174.478,415.76 			"/>
			<polygon style="fill:#E0E0E0;" points="-4.477,658.432 -4.477,645.573 170.544,407.549 175.117,415.849 			"/>
			<polygon style="fill:#DFDFDF;" points="-3.838,658.522 -3.838,645.663 171.204,407.617 175.757,415.939 			"/>
			<polygon style="fill:#DEDEDE;" points="-3.198,658.611 -3.198,645.753 171.863,407.685 176.397,416.028 			"/>
			<polygon style="fill:#DDDDDD;" points="-2.559,658.701 -2.559,645.842 172.522,407.753 177.036,416.118 			"/>
			<polygon style="fill:#DCDCDC;" points="-1.919,658.791 -1.919,645.932 173.181,407.82 177.676,416.208 			"/>
			<polygon style="fill:#DBDBDB;" points="-1.279,658.88 -1.279,646.022 173.841,407.888 178.316,416.297 			"/>
			<polygon style="fill:#DADADA;" points="-0.64,658.97 -0.64,646.111 174.5,407.956 178.955,416.387 			"/>
			<g>
				<polygon style="fill:#D9D9D9;" points="0,659.059 0,646.201 175.159,408.024 179.595,416.477 				"/>
			</g>
		</g>
	</g>
</g>
<g id="Objects">
	<g>
		<defs>
			<rect id="SVGID_00000158722672947571915380000016102850838837646495_" width="1200" height="799.073"/>
		</defs>
		<clipPath id="SVGID_00000055694173818375435790000002191503207530227363_">
			<use xlink:href="#SVGID_00000158722672947571915380000016102850838837646495_"  style="overflow:visible;"/>
		</clipPath>
		<g style="clip-path:url(#SVGID_00000055694173818375435790000002191503207530227363_);">
			<g>
				<rect x="692.4" y="125.779" style="fill:#C5C5C5;" width="16.769" height="16.436"/>
				<rect x="665.339" y="75.318" style="fill:#ECECEC;" width="11.429" height="11.202"/>
				<rect x="736.331" y="63.992" style="fill:#FFFFFF;" width="23.926" height="23.451"/>
				<path style="fill:#D9D9D9;" d="M829.946,78.52v32.778h33.441V78.52H829.946z M855.027,86.715v16.389h-16.721V86.715H855.027z"/>
				<rect x="838.306" y="86.715" style="fill:#FFFFFF;" width="16.721" height="16.389"/>
			</g>
			<g>
				<g>
					<g>
						
							<rect x="1003.276" y="90.78" transform="matrix(-1 -1.224647e-16 1.224647e-16 -1 2025.6484 200.2774)" style="fill:#D9D9D9;" width="19.097" height="18.718"/>
						
							<rect x="1033.922" y="128.876" transform="matrix(-1 -1.224647e-16 1.224647e-16 -1 2082.4775 272.0962)" style="fill:#FFFFFF;" width="14.634" height="14.344"/>
						<g>
							
								<rect x="1032.834" y="80.52" transform="matrix(6.123234e-17 -1 1 6.123234e-17 952.023 1142.3315)" style="fill:#FFFFFF;" width="28.687" height="29.268"/>
							
								<rect x="1032.834" y="51.833" transform="matrix(6.123234e-17 -1 1 6.123234e-17 980.7103 1113.6444)" style="fill:#FFFFFF;" width="28.687" height="29.268"/>
							
								<rect x="1003.566" y="51.833" transform="matrix(6.123234e-17 -1 1 6.123234e-17 951.4424 1084.3765)" style="fill:#FFFFFF;" width="28.687" height="29.268"/>
						</g>
					</g>
				</g>
			</g>
		</g>
		<g style="clip-path:url(#SVGID_00000055694173818375435790000002191503207530227363_);">
			<g>
				<path style="fill:#C5C5C5;" d="M144.933,618.783c-1.436,0-2.599-1.164-2.599-2.599c0-1.435,1.164-2.599,2.599-2.599
					c1.436,0,2.599,1.164,2.599,2.599C147.533,617.619,146.369,618.783,144.933,618.783z"/>
				<path style="fill:#C5C5C5;" d="M144.933,638.358c-1.436,0-2.599-1.164-2.599-2.599c0-1.436,1.164-2.599,2.599-2.599
					c1.436,0,2.599,1.164,2.599,2.599C147.533,637.194,146.369,638.358,144.933,638.358z"/>
				<path style="fill:#C5C5C5;" d="M144.933,657.932c-1.436,0-2.599-1.164-2.599-2.599c0-1.435,1.164-2.599,2.599-2.599
					c1.436,0,2.599,1.164,2.599,2.599C147.533,656.769,146.369,657.932,144.933,657.932z"/>
				<path style="fill:#C5C5C5;" d="M144.933,677.507c-1.436,0-2.599-1.164-2.599-2.599c0-1.436,1.164-2.6,2.599-2.6
					c1.436,0,2.599,1.164,2.599,2.6C147.533,676.344,146.369,677.507,144.933,677.507z"/>
				<path style="fill:#C5C5C5;" d="M144.933,697.082c-1.436,0-2.599-1.164-2.599-2.599c0-1.436,1.164-2.599,2.599-2.599
					c1.436,0,2.599,1.164,2.599,2.599C147.533,695.918,146.369,697.082,144.933,697.082z"/>
				<path style="fill:#C5C5C5;" d="M144.933,716.657c-1.436,0-2.599-1.164-2.599-2.599c0-1.436,1.164-2.599,2.599-2.599
					c1.436,0,2.599,1.164,2.599,2.599C147.533,715.493,146.369,716.657,144.933,716.657z"/>
			</g>
			<g>
				<path style="fill:#C5C5C5;" d="M115.626,618.783c-1.436,0-2.599-1.164-2.599-2.599c0-1.435,1.164-2.599,2.599-2.599
					c1.436,0,2.599,1.164,2.599,2.599C118.226,617.619,117.062,618.783,115.626,618.783z"/>
				<path style="fill:#C5C5C5;" d="M115.626,638.358c-1.436,0-2.599-1.164-2.599-2.599c0-1.436,1.164-2.599,2.599-2.599
					c1.436,0,2.599,1.164,2.599,2.599C118.226,637.194,117.062,638.358,115.626,638.358z"/>
				<path style="fill:#C5C5C5;" d="M115.626,657.932c-1.436,0-2.599-1.164-2.599-2.599c0-1.435,1.164-2.599,2.599-2.599
					c1.436,0,2.599,1.164,2.599,2.599C118.226,656.769,117.062,657.932,115.626,657.932z"/>
				<path style="fill:#C5C5C5;" d="M115.626,677.507c-1.436,0-2.599-1.164-2.599-2.599c0-1.436,1.164-2.6,2.599-2.6
					c1.436,0,2.599,1.164,2.599,2.6C118.226,676.344,117.062,677.507,115.626,677.507z"/>
				<path style="fill:#C5C5C5;" d="M115.626,697.082c-1.436,0-2.599-1.164-2.599-2.599c0-1.436,1.164-2.599,2.599-2.599
					c1.436,0,2.599,1.164,2.599,2.599C118.226,695.918,117.062,697.082,115.626,697.082z"/>
				<path style="fill:#C5C5C5;" d="M115.626,716.657c-1.436,0-2.599-1.164-2.599-2.599c0-1.436,1.164-2.599,2.599-2.599
					c1.436,0,2.599,1.164,2.599,2.599C118.226,715.493,117.062,716.657,115.626,716.657z"/>
			</g>
			<g>
				<path style="fill:#C5C5C5;" d="M86.319,618.783c-1.436,0-2.599-1.164-2.599-2.599c0-1.435,1.164-2.599,2.599-2.599
					c1.436,0,2.599,1.164,2.599,2.599C88.919,617.619,87.755,618.783,86.319,618.783z"/>
				<path style="fill:#C5C5C5;" d="M86.319,638.358c-1.436,0-2.599-1.164-2.599-2.599c0-1.436,1.164-2.599,2.599-2.599
					c1.436,0,2.599,1.164,2.599,2.599C88.919,637.194,87.755,638.358,86.319,638.358z"/>
				<path style="fill:#C5C5C5;" d="M86.319,657.932c-1.436,0-2.599-1.164-2.599-2.599c0-1.435,1.164-2.599,2.599-2.599
					c1.436,0,2.599,1.164,2.599,2.599C88.919,656.769,87.755,657.932,86.319,657.932z"/>
				<path style="fill:#C5C5C5;" d="M86.319,677.507c-1.436,0-2.599-1.164-2.599-2.599c0-1.436,1.164-2.6,2.599-2.6
					c1.436,0,2.599,1.164,2.599,2.6C88.919,676.344,87.755,677.507,86.319,677.507z"/>
				<path style="fill:#C5C5C5;" d="M86.319,697.082c-1.436,0-2.599-1.164-2.599-2.599c0-1.436,1.164-2.599,2.599-2.599
					c1.436,0,2.599,1.164,2.599,2.599C88.919,695.918,87.755,697.082,86.319,697.082z"/>
				<path style="fill:#C5C5C5;" d="M86.319,716.657c-1.436,0-2.599-1.164-2.599-2.599c0-1.436,1.164-2.599,2.599-2.599
					c1.436,0,2.599,1.164,2.599,2.599C88.919,715.493,87.755,716.657,86.319,716.657z"/>
			</g>
		</g>
		<g style="clip-path:url(#SVGID_00000055694173818375435790000002191503207530227363_);">
			<g>
				<path style="fill:#FFFFFF;" d="M1174.756,193.295c-1.436,0-2.599-1.164-2.599-2.599c0-1.436,1.164-2.6,2.599-2.6
					c1.435,0,2.599,1.164,2.599,2.6C1177.355,192.131,1176.191,193.295,1174.756,193.295z"/>
				<path style="fill:#FFFFFF;" d="M1174.756,212.87c-1.436,0-2.599-1.164-2.599-2.599c0-1.436,1.164-2.6,2.599-2.6
					c1.435,0,2.599,1.164,2.599,2.6C1177.355,211.706,1176.191,212.87,1174.756,212.87z"/>
				<path style="fill:#FFFFFF;" d="M1174.756,232.444c-1.436,0-2.599-1.164-2.599-2.599c0-1.436,1.164-2.599,2.599-2.599
					c1.435,0,2.599,1.164,2.599,2.599C1177.355,231.281,1176.191,232.444,1174.756,232.444z"/>
				<path style="fill:#FFFFFF;" d="M1174.756,252.019c-1.436,0-2.599-1.164-2.599-2.599c0-1.436,1.164-2.6,2.599-2.6
					c1.435,0,2.599,1.164,2.599,2.6C1177.355,250.855,1176.191,252.019,1174.756,252.019z"/>
				<path style="fill:#FFFFFF;" d="M1174.756,271.594c-1.436,0-2.599-1.164-2.599-2.599c0-1.436,1.164-2.599,2.599-2.599
					c1.435,0,2.599,1.164,2.599,2.599C1177.355,270.43,1176.191,271.594,1174.756,271.594z"/>
				<path style="fill:#FFFFFF;" d="M1174.756,291.169c-1.436,0-2.599-1.164-2.599-2.599c0-1.436,1.164-2.599,2.599-2.599
					c1.435,0,2.599,1.164,2.599,2.599C1177.355,290.005,1176.191,291.169,1174.756,291.169z"/>
			</g>
			<g>
				<path style="fill:#FFFFFF;" d="M1145.448,193.295c-1.436,0-2.599-1.164-2.599-2.599c0-1.436,1.164-2.6,2.599-2.6
					c1.436,0,2.599,1.164,2.599,2.6C1148.048,192.131,1146.884,193.295,1145.448,193.295z"/>
				<path style="fill:#FFFFFF;" d="M1145.448,212.87c-1.436,0-2.599-1.164-2.599-2.599c0-1.436,1.164-2.6,2.599-2.6
					c1.436,0,2.599,1.164,2.599,2.6C1148.048,211.706,1146.884,212.87,1145.448,212.87z"/>
				<path style="fill:#FFFFFF;" d="M1145.448,232.444c-1.436,0-2.599-1.164-2.599-2.599c0-1.436,1.164-2.599,2.599-2.599
					c1.436,0,2.599,1.164,2.599,2.599C1148.048,231.281,1146.884,232.444,1145.448,232.444z"/>
				<path style="fill:#FFFFFF;" d="M1145.448,252.019c-1.436,0-2.599-1.164-2.599-2.599c0-1.436,1.164-2.6,2.599-2.6
					c1.436,0,2.599,1.164,2.599,2.6C1148.048,250.855,1146.884,252.019,1145.448,252.019z"/>
				<path style="fill:#FFFFFF;" d="M1145.448,271.594c-1.436,0-2.599-1.164-2.599-2.599c0-1.436,1.164-2.599,2.599-2.599
					c1.436,0,2.599,1.164,2.599,2.599C1148.048,270.43,1146.884,271.594,1145.448,271.594z"/>
				<path style="fill:#FFFFFF;" d="M1145.448,291.169c-1.436,0-2.599-1.164-2.599-2.599c0-1.436,1.164-2.599,2.599-2.599
					c1.436,0,2.599,1.164,2.599,2.599C1148.048,290.005,1146.884,291.169,1145.448,291.169z"/>
			</g>
			<g>
				<path style="fill:#FFFFFF;" d="M1116.141,193.295c-1.436,0-2.599-1.164-2.599-2.599c0-1.436,1.164-2.6,2.599-2.6
					c1.436,0,2.599,1.164,2.599,2.6C1118.741,192.131,1117.577,193.295,1116.141,193.295z"/>
				<path style="fill:#FFFFFF;" d="M1116.141,212.87c-1.436,0-2.599-1.164-2.599-2.599c0-1.436,1.164-2.6,2.599-2.6
					c1.436,0,2.599,1.164,2.599,2.6C1118.741,211.706,1117.577,212.87,1116.141,212.87z"/>
				<path style="fill:#FFFFFF;" d="M1116.141,232.444c-1.436,0-2.599-1.164-2.599-2.599c0-1.436,1.164-2.599,2.599-2.599
					c1.436,0,2.599,1.164,2.599,2.599C1118.741,231.281,1117.577,232.444,1116.141,232.444z"/>
				<path style="fill:#FFFFFF;" d="M1116.141,252.019c-1.436,0-2.599-1.164-2.599-2.599c0-1.436,1.164-2.6,2.599-2.6
					c1.436,0,2.599,1.164,2.599,2.6C1118.741,250.855,1117.577,252.019,1116.141,252.019z"/>
				<path style="fill:#FFFFFF;" d="M1116.141,271.594c-1.436,0-2.599-1.164-2.599-2.599c0-1.436,1.164-2.599,2.599-2.599
					c1.436,0,2.599,1.164,2.599,2.599C1118.741,270.43,1117.577,271.594,1116.141,271.594z"/>
				<path style="fill:#FFFFFF;" d="M1116.141,291.169c-1.436,0-2.599-1.164-2.599-2.599c0-1.436,1.164-2.599,2.599-2.599
					c1.436,0,2.599,1.164,2.599,2.599C1118.741,290.005,1117.577,291.169,1116.141,291.169z"/>
			</g>
		</g>
		<g style="clip-path:url(#SVGID_00000055694173818375435790000002191503207530227363_);">
			<g>
				<path style="fill:#D9D9D9;" d="M373.738,719.63c0,1.436-1.164,2.599-2.599,2.599c-1.436,0-2.6-1.164-2.6-2.599
					c0-1.436,1.164-2.599,2.6-2.599C372.574,717.03,373.738,718.194,373.738,719.63z"/>
				<path style="fill:#D9D9D9;" d="M393.313,719.63c0,1.436-1.164,2.599-2.599,2.599c-1.436,0-2.599-1.164-2.599-2.599
					c0-1.436,1.164-2.599,2.599-2.599C392.149,717.03,393.313,718.194,393.313,719.63z"/>
				<path style="fill:#D9D9D9;" d="M412.887,719.63c0,1.436-1.164,2.599-2.599,2.599c-1.436,0-2.6-1.164-2.6-2.599
					c0-1.436,1.164-2.599,2.6-2.599C411.724,717.03,412.887,718.194,412.887,719.63z"/>
				<path style="fill:#D9D9D9;" d="M432.462,719.63c0,1.436-1.164,2.599-2.599,2.599c-1.436,0-2.599-1.164-2.599-2.599
					c0-1.436,1.164-2.599,2.599-2.599C431.298,717.03,432.462,718.194,432.462,719.63z"/>
				<path style="fill:#D9D9D9;" d="M452.037,719.63c0,1.436-1.164,2.599-2.599,2.599c-1.436,0-2.599-1.164-2.599-2.599
					c0-1.436,1.164-2.599,2.599-2.599C450.873,717.03,452.037,718.194,452.037,719.63z"/>
				<path style="fill:#D9D9D9;" d="M471.612,719.63c0,1.436-1.164,2.599-2.599,2.599c-1.436,0-2.6-1.164-2.6-2.599
					c0-1.436,1.164-2.599,2.6-2.599C470.448,717.03,471.612,718.194,471.612,719.63z"/>
			</g>
			<g>
				<path style="fill:#D9D9D9;" d="M373.738,748.937c0,1.435-1.164,2.599-2.599,2.599c-1.436,0-2.6-1.164-2.6-2.599
					c0-1.436,1.164-2.6,2.6-2.6C372.574,746.337,373.738,747.501,373.738,748.937z"/>
				<path style="fill:#D9D9D9;" d="M393.313,748.937c0,1.435-1.164,2.599-2.599,2.599c-1.436,0-2.599-1.164-2.599-2.599
					c0-1.436,1.164-2.6,2.599-2.6C392.149,746.337,393.313,747.501,393.313,748.937z"/>
				<path style="fill:#D9D9D9;" d="M412.887,748.937c0,1.435-1.164,2.599-2.599,2.599c-1.436,0-2.6-1.164-2.6-2.599
					c0-1.436,1.164-2.6,2.6-2.6C411.724,746.337,412.887,747.501,412.887,748.937z"/>
				<path style="fill:#D9D9D9;" d="M432.462,748.937c0,1.435-1.164,2.599-2.599,2.599c-1.436,0-2.599-1.164-2.599-2.599
					c0-1.436,1.164-2.6,2.599-2.6C431.298,746.337,432.462,747.501,432.462,748.937z"/>
				<path style="fill:#D9D9D9;" d="M452.037,748.937c0,1.435-1.164,2.599-2.599,2.599c-1.436,0-2.599-1.164-2.599-2.599
					c0-1.436,1.164-2.6,2.599-2.6C450.873,746.337,452.037,747.501,452.037,748.937z"/>
				<path style="fill:#D9D9D9;" d="M471.612,748.937c0,1.435-1.164,2.599-2.599,2.599c-1.436,0-2.6-1.164-2.6-2.599
					c0-1.436,1.164-2.6,2.6-2.6C470.448,746.337,471.612,747.501,471.612,748.937z"/>
			</g>
			<g>
				<path style="fill:#D9D9D9;" d="M373.738,778.244c0,1.436-1.164,2.599-2.599,2.599c-1.436,0-2.6-1.164-2.6-2.599
					c0-1.436,1.164-2.599,2.6-2.599C372.574,775.644,373.738,776.808,373.738,778.244z"/>
				<path style="fill:#D9D9D9;" d="M393.313,778.244c0,1.436-1.164,2.599-2.599,2.599c-1.436,0-2.599-1.164-2.599-2.599
					c0-1.436,1.164-2.599,2.599-2.599C392.149,775.644,393.313,776.808,393.313,778.244z"/>
				<path style="fill:#D9D9D9;" d="M412.887,778.244c0,1.436-1.164,2.599-2.599,2.599c-1.436,0-2.6-1.164-2.6-2.599
					c0-1.436,1.164-2.599,2.6-2.599C411.724,775.644,412.887,776.808,412.887,778.244z"/>
				<path style="fill:#D9D9D9;" d="M432.462,778.244c0,1.436-1.164,2.599-2.599,2.599c-1.436,0-2.599-1.164-2.599-2.599
					c0-1.436,1.164-2.599,2.599-2.599C431.298,775.644,432.462,776.808,432.462,778.244z"/>
				<path style="fill:#D9D9D9;" d="M452.037,778.244c0,1.436-1.164,2.599-2.599,2.599c-1.436,0-2.599-1.164-2.599-2.599
					c0-1.436,1.164-2.599,2.599-2.599C450.873,775.644,452.037,776.808,452.037,778.244z"/>
				<path style="fill:#D9D9D9;" d="M471.612,778.244c0,1.436-1.164,2.599-2.599,2.599c-1.436,0-2.6-1.164-2.6-2.599
					c0-1.436,1.164-2.599,2.6-2.599C470.448,775.644,471.612,776.808,471.612,778.244z"/>
			</g>
		</g>
		<g style="clip-path:url(#SVGID_00000055694173818375435790000002191503207530227363_);">
			<g>
				<path style="fill:#C5C5C5;" d="M619.794,34.729c0,1.436-1.164,2.599-2.599,2.599c-1.435,0-2.599-1.164-2.599-2.599
					c0-1.436,1.164-2.599,2.599-2.599C618.63,32.13,619.794,33.293,619.794,34.729z"/>
				<path style="fill:#C5C5C5;" d="M639.369,34.729c0,1.436-1.164,2.599-2.599,2.599c-1.436,0-2.599-1.164-2.599-2.599
					c0-1.436,1.164-2.599,2.599-2.599C638.205,32.13,639.369,33.293,639.369,34.729z"/>
				<path style="fill:#C5C5C5;" d="M658.944,34.729c0,1.436-1.164,2.599-2.599,2.599c-1.436,0-2.599-1.164-2.599-2.599
					c0-1.436,1.164-2.599,2.599-2.599C657.78,32.13,658.944,33.293,658.944,34.729z"/>
				<path style="fill:#C5C5C5;" d="M678.519,34.729c0,1.436-1.164,2.599-2.599,2.599c-1.436,0-2.599-1.164-2.599-2.599
					c0-1.436,1.164-2.599,2.599-2.599C677.355,32.13,678.519,33.293,678.519,34.729z"/>
				<path style="fill:#C5C5C5;" d="M698.094,34.729c0,1.436-1.164,2.599-2.599,2.599c-1.436,0-2.6-1.164-2.6-2.599
					c0-1.436,1.164-2.599,2.6-2.599C696.93,32.13,698.094,33.293,698.094,34.729z"/>
				<path style="fill:#C5C5C5;" d="M717.669,34.729c0,1.436-1.164,2.599-2.599,2.599c-1.436,0-2.599-1.164-2.599-2.599
					c0-1.436,1.164-2.599,2.599-2.599C716.505,32.13,717.669,33.293,717.669,34.729z"/>
			</g>
			<g>
				<path style="fill:#C5C5C5;" d="M619.794,64.036c0,1.436-1.164,2.599-2.599,2.599c-1.435,0-2.599-1.164-2.599-2.599
					c0-1.436,1.164-2.6,2.599-2.6C618.63,61.437,619.794,62.6,619.794,64.036z"/>
				<path style="fill:#C5C5C5;" d="M639.369,64.036c0,1.436-1.164,2.599-2.599,2.599c-1.436,0-2.599-1.164-2.599-2.599
					c0-1.436,1.164-2.6,2.599-2.6C638.205,61.437,639.369,62.6,639.369,64.036z"/>
				<path style="fill:#C5C5C5;" d="M658.944,64.036c0,1.436-1.164,2.599-2.599,2.599c-1.436,0-2.599-1.164-2.599-2.599
					c0-1.436,1.164-2.6,2.599-2.6C657.78,61.437,658.944,62.6,658.944,64.036z"/>
				<path style="fill:#C5C5C5;" d="M678.519,64.036c0,1.436-1.164,2.599-2.599,2.599c-1.436,0-2.599-1.164-2.599-2.599
					c0-1.436,1.164-2.6,2.599-2.6C677.355,61.437,678.519,62.6,678.519,64.036z"/>
				<path style="fill:#C5C5C5;" d="M698.094,64.036c0,1.436-1.164,2.599-2.599,2.599c-1.436,0-2.6-1.164-2.6-2.599
					c0-1.436,1.164-2.6,2.6-2.6C696.93,61.437,698.094,62.6,698.094,64.036z"/>
				<path style="fill:#C5C5C5;" d="M717.669,64.036c0,1.436-1.164,2.599-2.599,2.599c-1.436,0-2.599-1.164-2.599-2.599
					c0-1.436,1.164-2.6,2.599-2.6C716.505,61.437,717.669,62.6,717.669,64.036z"/>
			</g>
			<g>
				<path style="fill:#C5C5C5;" d="M619.794,93.343c0,1.436-1.164,2.599-2.599,2.599c-1.435,0-2.599-1.164-2.599-2.599
					c0-1.436,1.164-2.599,2.599-2.599C618.63,90.744,619.794,91.908,619.794,93.343z"/>
				<path style="fill:#C5C5C5;" d="M639.369,93.343c0,1.436-1.164,2.599-2.599,2.599c-1.436,0-2.599-1.164-2.599-2.599
					c0-1.436,1.164-2.599,2.599-2.599C638.205,90.744,639.369,91.908,639.369,93.343z"/>
				<path style="fill:#C5C5C5;" d="M658.944,93.343c0,1.436-1.164,2.599-2.599,2.599c-1.436,0-2.599-1.164-2.599-2.599
					c0-1.436,1.164-2.599,2.599-2.599C657.78,90.744,658.944,91.908,658.944,93.343z"/>
				<path style="fill:#C5C5C5;" d="M678.519,93.343c0,1.436-1.164,2.599-2.599,2.599c-1.436,0-2.599-1.164-2.599-2.599
					c0-1.436,1.164-2.599,2.599-2.599C677.355,90.744,678.519,91.908,678.519,93.343z"/>
				<path style="fill:#C5C5C5;" d="M698.094,93.343c0,1.436-1.164,2.599-2.599,2.599c-1.436,0-2.6-1.164-2.6-2.599
					c0-1.436,1.164-2.599,2.6-2.599C696.93,90.744,698.094,91.908,698.094,93.343z"/>
				<path style="fill:#C5C5C5;" d="M717.669,93.343c0,1.436-1.164,2.599-2.599,2.599c-1.436,0-2.599-1.164-2.599-2.599
					c0-1.436,1.164-2.599,2.599-2.599C716.505,90.744,717.669,91.908,717.669,93.343z"/>
			</g>
		</g>
		<g style="clip-path:url(#SVGID_00000055694173818375435790000002191503207530227363_);">
			<polygon style="fill:#FFFFFF;" points="173.733,409.544 253.346,549.828 255.078,548.846 175.159,408.024 			"/>
		</g>
		
			<rect x="396.441" y="652.63" style="clip-path:url(#SVGID_00000055694173818375435790000002191503207530227363_);fill:#ECECEC;" width="14.044" height="14.044"/>
		
			<rect x="65.85" y="465.754" style="clip-path:url(#SVGID_00000055694173818375435790000002191503207530227363_);fill:#C5C5C5;" width="14.044" height="14.044"/>
		
			<rect x="444.031" y="679.767" style="clip-path:url(#SVGID_00000055694173818375435790000002191503207530227363_);fill:#FFFFFF;" width="9.572" height="9.572"/>
		
			<rect x="443.242" y="609.842" style="clip-path:url(#SVGID_00000055694173818375435790000002191503207530227363_);fill:#D9D9D9;" width="20.038" height="20.038"/>
		
			<rect x="0" y="269.229" style="clip-path:url(#SVGID_00000055694173818375435790000002191503207530227363_);fill:#D9D9D9;" width="14.702" height="20.038"/>
		
			<rect x="379.347" y="573.541" style="clip-path:url(#SVGID_00000055694173818375435790000002191503207530227363_);fill:#FFFFFF;" width="29.239" height="29.239"/>
		
			<rect x="21.579" y="430.996" style="clip-path:url(#SVGID_00000055694173818375435790000002191503207530227363_);fill:#FFFFFF;" width="29.239" height="29.239"/>
		<path style="clip-path:url(#SVGID_00000055694173818375435790000002191503207530227363_);fill:#D9D9D9;" d="M450.867,523.468
			h-28.008v28.008h28.008V523.468z M443.865,544.474h-14.004V530.47h14.004V544.474z"/>
		
			<rect x="429.861" y="530.47" style="clip-path:url(#SVGID_00000055694173818375435790000002191503207530227363_);fill:#FFFFFF;" width="14.004" height="14.004"/>
		<g style="clip-path:url(#SVGID_00000055694173818375435790000002191503207530227363_);">
			<g>
				<g>
					<polygon style="fill:#C5C5C5;" points="575.173,715.849 559.251,703.307 543.327,715.849 527.402,703.307 511.478,715.849 
						495.569,703.318 481.267,715.577 480.578,714.773 495.54,701.948 511.478,714.501 527.402,701.959 543.327,714.501 
						559.251,701.959 575.173,714.501 591.097,701.959 607.021,714.501 622.947,701.959 638.871,714.501 654.798,701.959 
						671.053,714.759 670.397,715.591 654.798,703.307 638.871,715.849 622.947,703.307 607.021,715.849 591.097,703.307 					"/>
				</g>
			</g>
			<g>
				<g>
					<polygon style="fill:#C5C5C5;" points="575.173,687.018 559.251,674.476 543.327,687.018 527.402,674.476 511.478,687.018 
						495.569,674.487 481.267,686.746 480.578,685.942 495.541,673.117 511.478,685.67 527.402,673.128 543.327,685.67 
						559.251,673.128 575.173,685.67 591.097,673.128 607.022,685.67 622.946,673.128 638.871,685.67 654.798,673.128 
						671.053,685.928 670.397,686.76 654.798,674.476 638.871,687.018 622.946,674.476 607.022,687.018 591.097,674.476 					"/>
				</g>
			</g>
		</g>
		<g style="clip-path:url(#SVGID_00000055694173818375435790000002191503207530227363_);">
			<polygon style="fill:#FFFFFF;" points="316.552,753.202 142.356,452.475 143.473,450.867 318.086,752.314 			"/>
		</g>
		<g style="clip-path:url(#SVGID_00000055694173818375435790000002191503207530227363_);">
			<polygon style="fill:#FFFFFF;" points="0,659.059 0,646.201 174.393,408.877 179.595,416.477 			"/>
		</g>
		<path style="clip-path:url(#SVGID_00000055694173818375435790000002191503207530227363_);fill:#FFFFFF;" d="M897.656,0
			L705.939,0.002c0,0,27.726,47.476,95.858,47.476C853.369,47.478,880.679,21.074,897.656,0z"/>
		<g style="clip-path:url(#SVGID_00000055694173818375435790000002191503207530227363_);">
			<g>
				<polygon style="fill:#D9D9D9;" points="412.887,720.504 388.831,762.17 436.943,762.17 				"/>
			</g>
			<g>
				
					<rect x="249.625" y="646.48" transform="matrix(0.7071 -0.7071 0.7071 0.7071 -367.9358 406.4571)" style="fill:#D9D9D9;" width="114.089" height="1.773"/>
			</g>
			<g>
				
					<rect x="263.014" y="667.978" transform="matrix(0.7071 -0.7071 0.7071 0.7071 -379.3072 421.9999)" style="fill:#D9D9D9;" width="113.462" height="1.773"/>
			</g>
			<g>
				
					<rect x="274.447" y="689.919" transform="matrix(0.7071 -0.7072 0.7072 0.7071 -391.4018 436.7899)" style="fill:#D9D9D9;" width="114.089" height="1.773"/>
			</g>
			<g>
				<path style="fill:#FFFFFF;" d="M438.523,763.056H126.66l155.931-270.08L438.523,763.056z M141.585,754.018h282.014
					L282.591,509.787L141.585,754.018z"/>
			</g>
		</g>
		<g style="clip-path:url(#SVGID_00000055694173818375435790000002191503207530227363_);">
			<g>
				<path style="fill:#FFFFFF;" d="M914.113-38.946h311.863l-155.931,270.08L914.113-38.946z M1211.051-29.908H929.037
					l141.007,244.231L1211.051-29.908z"/>
			</g>
		</g>
		
			<rect x="967.744" y="173.745" transform="matrix(-1 -1.224647e-16 1.224647e-16 -1 1957.4471 369.0149)" style="clip-path:url(#SVGID_00000055694173818375435790000002191503207530227363_);fill:#FFFFFF;" width="21.96" height="21.524"/>
		
			<rect x="935.968" y="200.849" transform="matrix(-1 -1.224647e-16 1.224647e-16 -1 1881.4327 411.0067)" style="clip-path:url(#SVGID_00000055694173818375435790000002191503207530227363_);fill:#FFFFFF;" width="9.496" height="9.308"/>
		<g style="clip-path:url(#SVGID_00000055694173818375435790000002191503207530227363_);">
			
				<rect x="943.571" y="113.953" transform="matrix(-1 -1.224647e-16 1.224647e-16 -1 1913.3475 253.5911)" style="fill:#ECECEC;" width="26.205" height="25.685"/>
			
				<rect x="892.559" y="162.087" transform="matrix(-1 -1.224647e-16 1.224647e-16 -1 1796.4502 335.2815)" style="fill:#D9D9D9;" width="11.332" height="11.108"/>
		</g>
		<path style="clip-path:url(#SVGID_00000055694173818375435790000002191503207530227363_);fill:#FFFFFF;" d="M0,562.076
			l0.002,191.716c0,0,47.476-27.726,47.476-95.858C47.478,606.362,21.074,579.052,0,562.076z"/>
		<g style="clip-path:url(#SVGID_00000055694173818375435790000002191503207530227363_);">
			<path style="fill:#FFFFFF;" d="M99.208,419.556l-3.131-0.138c-34.979-1.533-62.379-32.288-62.379-70.017
				c0-37.728,27.4-68.483,62.379-70.016l3.131-0.137V419.556z M93.208,285.605c-30.252,3.034-53.511,30.43-53.511,63.796
				s23.259,60.763,53.511,63.797V285.605z"/>
		</g>
		
			<rect x="1085.31" y="32.018" style="clip-path:url(#SVGID_00000055694173818375435790000002191503207530227363_);fill:#FFFFFF;" width="114.69" height="1.398"/>
		
			<rect x="1085.31" y="56.779" style="clip-path:url(#SVGID_00000055694173818375435790000002191503207530227363_);fill:#FFFFFF;" width="114.69" height="1.398"/>
		
			<rect x="1115.31" y="90.039" style="clip-path:url(#SVGID_00000055694173818375435790000002191503207530227363_);fill:#FFFFFF;" width="84.69" height="1.398"/>
	</g>
</g>
</svg>
